<svg version="1.1" id="Layer_1" xmlns="http://www.w3.org/2000/svg" xmlns:xlink="http://www.w3.org/1999/xlink" x="0" y="0" viewBox="0 0 910 567" xml:space="preserve"><style>.st2{fill:#cde4f7}.st3{fill:#ecf7fe}.st5{fill:#fff}.st6{fill:#e08f73}.st7{fill:#f8c47a}.st8{fill:#ce8d4d}.st10{fill:none}.st11{fill:#d4d4d4}.st12{fill:#e4e6e6}.st13{fill:#f09976}.st14{fill:#e8815f}.st15{fill:#0b2b46}.st17{fill:#02819f}.st19{fill:#047487}.st20{fill:#05616b}.st21{fill:#ffda35}.st24{fill:#52b82d}.st25{opacity:.33}.st26{fill:#c1a8db}.st27{fill:#e19a54}.st28{fill:#ffdf9a}.st29{fill:#d38137}.st34{fill:#e5b571}.st35{fill:#eccf8f}.st36{fill:#c07632}</style><g id="Грузики"><ellipse cx="455.4" cy="501.3" rx="454.6" ry="65.1" fill="#eaf1fc"/><path d="M850.4 492.4c58.8-122.1 91.1-355.7-36.2-433.3-83.3-50.8-170 14.5-259.1 17.5C485.2 79 417.8 23.8 354.7 8 189.4-33.3-70.6 74.1 43.8 492.4c285.8-.8 520.8.8 806.6 0z" fill="#f8f8ff"/><path class="st2" d="M490.9 499.3c.5-1.1.8-2.3 1-3.5.2-1.2.2-2.4.1-3.6-1.3-11.8-15.9-16.8-27.7-16.5-11.8.3-24.8 3-34.7-3.5-12.3-8-13.1-25.5-19.7-38.6-11.4-23-45-31.2-65.8-16 0-20-15.8-38.8-35.4-42.4-19.6-3.6-41 8.5-48 27.2 1.4-17-18.9-22.7-31.6-17.5-16.8 7-21.6 26-27.2 41.3-10.2-12.7-34.5-17.9-31.4 3.4 1.1 7.4 4.2 15.1 8.8 22.8-6.9 0-13.8 3.3-17.9 9.8-6.2-17.1-30.5-17.7-37.5-.9 2.8-10.9-7-20.9-17.8-18.4-28.3 6.5-19.6 25.9-1.3 48.1-15.6-13.3-47.4 3.2-50.1 20.9h432.9l3.3-12.6z"/><path class="st3" d="M486.2 489.1c60-32.2 57.7-96.4 162.4-40.6 92.4 49.3 70.9-46.6 131.3-29.8 27.2 7.6 105.1 93.3 105.8 93.9h-522c49.8-14.8 87-4.4 122.5-23.5z"/><path d="M94.3 161.8c10.7-14.9 18.3-25.1 46.7-25.1 16.8 0 43.8 21.1 60.5 19.1 11.8-1.4 23.1-10.7 34.3-6.9 5.5 1.9 8.9 7.2 9.8 12.9H94.3zm290-32.4c-14.2-5.8-28.5-11.7-42.7-17.5-11.9-4.9-26.8-9.4-36.6-1-6.1 5.2-10.1 15.1-18 14.4-11.2-1-18.8-26.4-31.5-9.5-4.4 5.8-2.9 12.4.7 17.9h135.6c-2.1-1.9-4.9-3.2-7.5-4.3zm297.6 16.3c10-13.8 17.1-23.4 43.5-23.4 15.7 0 40.8 19.7 56.3 17.8 11-1.3 21.5-10 32-6.4 5.1 1.8 8.3 6.7 9.1 12H681.9z" fill="#e3f4ff"/><path class="st2" d="M670.2 531h-34.8c0-3.5 2.9-6.4 6.4-6.4h22c3.5 0 6.4 2.9 6.4 6.4z"/><path class="st2" d="M658.5 485.1h-10.8c-1.2 0-2.2.9-2.2 2l-1.8 39.1h17.9l-.9-39c0-1.2-1-2.1-2.2-2.1z"/><path class="st2" d="M658.7 485.7H647c-1 0-1.9-.8-1.9-1.9v-10.7c0-1 .8-1.9 1.9-1.9h11.7c1 0 1.9.8 1.9 1.9v10.7c-.1 1-.9 1.9-1.9 1.9z"/><path class="st2" d="M650.5 351.3h4.5v120h-4.5z"/><path class="st2" d="M662.4 354.1h-19.3c-1.6 0-2.8-1.2-2.8-2.6s1.3-2.6 2.8-2.6h19.3c1.6 0 2.8 1.2 2.8 2.6s-1.2 2.6-2.8 2.6z"/><path class="st5" d="M662.2 348.9h-18.9l-2.9-27.7h24.8z"/><path class="st2" d="M666.8 322.6h-28.1c-1.6 0-2.8-1.2-2.8-2.6s1.3-2.6 2.8-2.6h28.1c1.6 0 2.8 1.2 2.8 2.6.1 1.4-1.2 2.6-2.8 2.6zm-11.1-14.3h-5.8v-2.7c0-1.5 1.3-2.7 2.9-2.7 1.6 0 2.9 1.2 2.9 2.7v2.7z"/><path class="st2" d="M668.1 318h-30.4c0-6 4.9-10.9 10.9-10.9h8.6c6-.1 10.9 4.8 10.9 10.9zM317.5 452.1h5.6v66h-5.6zm-132.5 0h5.6v66H185z"/><path class="st3" d="M170.9 499.9h166.4v6.3H170.9zm160.8-4.9H176.4c-3.1 0-5.6-2.5-5.6-5.6 0-3.1 2.5-5.6 5.6-5.6h155.3c3.1 0 5.6 2.5 5.6 5.6 0 3.1-2.5 5.6-5.6 5.6zm0-14.3H176.4c-3.1 0-5.6-2.5-5.6-5.6 0-3.1 2.5-5.6 5.6-5.6h155.3c3.1 0 5.6 2.5 5.6 5.6s-2.5 5.6-5.6 5.6zm0-14.3H176.4c-3.1 0-5.6-2.5-5.6-5.6s2.5-5.6 5.6-5.6h155.3c3.1 0 5.6 2.5 5.6 5.6s-2.5 5.6-5.6 5.6z"/><path class="st2" d="M819.3 355.7c-.3-1.1-.6-2.3-1.2-3.3-1-1.4-2.6-2.3-3.5-3.8-.8-1.3-.8-2.9-.9-4.4-.2-9.1-.8-18.1-10.2-23-1.6-.8-3.4-1.4-4.7-2.6-3.2-2.8-3.3-7.6-4.2-11.8-1.7-7.8-7.6-16.7-16.1-15.2-.4.1-.8.1-1.2.3-8.5 2.4-16.6 9-16.9 18.3-.1 1.9.2 3.9-.4 5.7-1.4 4.5-6.6 6.8-8.9 10.7-2.8 4.8-5.3 11-7.3 16.3-.9 2.3-1.6 4.6-1.6 7 .1 4 2.6 7.7 2.6 11.7 0 3.7-2.1 7-3.5 10.4-3 7.4-1.4 14.6-.9 22.2.4 7.1 1 14.1 2.4 21.1 2 9.4 5.2 18.9 11.1 26.7 5.7 7.5 14.5 13.5 24.1 13.9h1.6s39.9 3.4 40.5-70c.3-10.4 1.6-19.9-.8-30.2z"/><path class="st5" d="M785.9 531.1h-9.6l3.1-117.7 1.4-2.9z"/><path class="st2" d="M502.8 354.9c-.3-1.1-.6-2.3-1.2-3.3-1-1.4-2.6-2.3-3.5-3.8-.8-1.3-.8-2.9-.9-4.4-.2-9.1-.8-18.1-10.2-23-1.6-.8-3.4-1.4-4.7-2.6-3.2-2.8-3.3-7.6-4.1-11.8-1.7-7.8-7.6-16.7-16.1-15.2-.4.1-.8.1-1.1.3-8.5 2.4-16.6 9-16.9 18.3-.1 1.9.2 3.9-.4 5.7-1.4 4.5-6.6 6.8-8.9 10.7-2.8 4.8-5.3 11-7.3 16.3-.9 2.3-1.6 4.6-1.6 7 .1 4 2.6 7.7 2.6 11.7 0 3.7-2.1 7-3.5 10.4-3 7.4-1.4 14.6-.9 22.2.4 7.1 1 14.1 2.4 21.1 2 9.4 5.2 18.9 11.1 26.7 5.7 7.5 14.5 13.5 24.1 13.9h1.6s39.9 3.4 40.5-70c.1-10.4 1.4-19.9-1-30.2z"/><path class="st5" d="M469.4 530.3h-9.6l3.1-117.7 1.5-2.9z"/><path class="st6" d="M678.5 327.1c.6-.1 1.4 1.1 2.5 3.2.5 1.1 1.1 2.4 1.7 3.8.6 1.5 1.4 3.1 2.2 4.8.9 1.7 1.9 3.5 3 5.2.6.9 1.2 1.7 1.9 2.4.7.8 1.4 1.5 2.3 2.2.8.7 1.7 1.3 2.5 1.9.9.5 1.8 1 2.7 1.4s1.9.6 2.8.8c.2 0 .5.1.7.1.2 0 .5 0 .7.1h1.5c2 0 4.1-.5 6.2-1.1 1-.3 2-.7 3-1.1.5-.2 1-.5 1.5-.7.5-.3 1-.5 1.4-.7l2.7-1.5c.9-.6 1.7-1.1 2.5-1.7 1.6-1.1 3.2-2.3 4.6-3.4s2.8-2.1 4.1-3 2.5-1.7 3.6-2.2c1.1-.6 2.1-.9 3-1s1.7 0 2.3.4 1.1 1.1 1.3 2c.3.9.3 2 .2 3.3-.2 1.3-.5 2.9-1.2 4.5s-1.6 3.5-2.8 5.5-2.9 4-4.9 6c-1 1-2.1 2-3.3 2.9-1.2 1-2.5 1.9-4 2.7-.7.4-1.5.8-2.2 1.2-.8.4-1.5.8-2.4 1.1-1.6.7-3.3 1.3-5.1 1.7-3.6.9-7.6 1.3-11.8.7-1-.1-2.1-.4-3.1-.6-.5-.1-1-.3-1.5-.4-.5-.1-1-.3-1.5-.5-1.9-.7-3.7-1.7-5.3-2.8-1.6-1.1-3-2.3-4.3-3.6-1.3-1.3-2.3-2.6-3.3-4s-1.7-2.8-2.4-4.1c-.7-1.4-1.2-2.8-1.6-4.1-.8-2.6-1.3-5.1-1.5-7.3s-.3-4.2-.3-5.9c0-1.7.1-3.1.2-4.3.4-2.4.8-3.8 1.4-3.9z"/><path transform="rotate(-1.738 699.79 285.248) scale(.99996)" class="st7" d="M652 238.8h95.7v92.9H652z"/><path transform="rotate(-1.738 763.4 283.32) scale(.99996)" class="st8" d="M747.6 236.9h31.6v92.9h-31.6z"/><path transform="rotate(-1.738 676.722 314.232) scale(.99996)" fill="#fafafa" d="M661.8 305.1h29.8v18.2h-29.8z"/><path class="st10" d="M666.6 310.6l19.4-.5"/><path transform="rotate(-1.738 676.267 310.305) scale(.99996)" class="st11" d="M666.6 309.1H686v2.4h-19.4z"/><path class="st10" d="M666.8 314.5l19.4-.6"/><path transform="rotate(-1.738 676.377 314.164) scale(.99996)" class="st11" d="M666.7 313h19.4v2.4h-19.4z"/><path class="st10" d="M666.9 318.4l7.7-.3"/><path transform="rotate(-1.738 670.653 318.192) scale(.99996)" class="st11" d="M666.8 317h7.7v2.4h-7.7z"/><path transform="rotate(-1.738 730.054 252.344) scale(.99996)" class="st12" d="M721.8 246.4h16.7v11.9h-16.7z"/><path class="st5" d="M712.5 357.8c-.6 12.1.1 24.2 1 36.3 11.6 3.5 24 4 36 1.8.4-12.3.8-24.7.5-37-.2-6.5-.6-13.1-2.6-19.2-1.8-5.5-5.1-10.7-9.7-13.8-.5-.4-1.1-.7-1.7-1-2.7 2.3-8.4 3.3-11.5 1.9-1.7 1.2-3.1 2.6-4.4 4.1-2.3 2.8-4 6.3-5.1 9.8-1.7 5.5-2.2 11.3-2.5 17.1z"/><path class="st13" d="M720.1 331c3.1.7 6.3.6 9.3-.2 1.6-.5 3.2-1.1 4.6-2 1.1-.7 2.2-1.5 3.2-2.4 0-.2 0-.5.1-.7v-.3c-.1-.3-.1-.7-.2-1-.7-3.4-1.3-6.9-1.9-10.3-.5-3.2-1.1-6.4-1.6-9.5-3.5 1.8-6.8 4-10.1 6.6 0 2.2 0 4.3-.2 6.5-.1 1.8-.3 3.6-.5 5.4-.1 1-.3 2-.4 3-.1.9-.3 1.9-.5 2.8-.5.6-1.2 1.3-1.8 2.1z"/><path class="st14" d="M722.9 323c3.7-3.5 7.8-6.6 12.3-9-.5-3.2-1.1-6.4-1.6-9.5-3.5 1.8-6.8 4-10.1 6.6 0 2.2 0 4.3-.2 6.5 0 1.8-.1 3.6-.4 5.4z"/><path id="XMLID_81_" class="st15" d="M795.3 507.1s.2 8.5-7.5 8.5l-.5 30.5 20-36.9-12-2.1z"/><defs><path id="SVGID_1_" d="M795.3 507.1s.2 8.5-7.5 8.5l-.5 30.5 20-36.9-12-2.1z"/></defs><clipPath id="SVGID_2_"><use xlink:href="#SVGID_1_" overflow="visible"/></clipPath><path d="M782.3 537.8s6.3-8.3 17.3-1.4l-13 13.3-4.3-11.9z" clip-path="url(#SVGID_2_)" fill="#fff"/><path class="st17" d="M791.2 546.9l19-35c.3-.5.1-1.2-.4-1.5l-2.3-1.2-20 36.9 2.3 1.2c.4.4 1.1.2 1.4-.4z"/><path class="st5" d="M792.5 521.8c-.1.1-.2.1-.3.2-2.7.4-4.4 1.3-4.4 1.3-.3.2-.7.1-.9-.3s0-.8.3-.9c.1 0 1.9-1 4.8-1.5.4-.1.7.2.8.6 0 .2-.1.5-.3.6zm-.2 3.9c-.1.1-.2.1-.3.2-2.7.4-4.4 1.3-4.4 1.3-.3.2-.7.1-.9-.3s0-.8.3-.9c.1 0 1.9-1 4.8-1.5.4-.1.7.2.8.6 0 .2-.1.4-.3.6zm-.1 3.8c-.1.1-.2.1-.3.2-2.7.4-4.4 1.3-4.4 1.3-.3.2-.7.1-.9-.3s0-.8.3-.9c.1 0 1.9-1 4.8-1.5.4-.1.7.2.8.6 0 .2-.1.4-.3.6z"/><path id="XMLID_80_" class="st15" d="M712.2 533.1s-7.5 4.2-11-2.7L674 544.2l42 .6-3.8-11.7z"/><defs><path id="SVGID_3_" d="M712.2 533.1s-7.5 4.2-11-2.7L674 544.2l42 .6-3.8-11.7z"/></defs><clipPath id="SVGID_4_"><use xlink:href="#SVGID_3_" overflow="visible"/></clipPath><path d="M678.9 535.8s10.3 1.8 9.3 14.6l-17.8-5.3 8.5-9.3z" clip-path="url(#SVGID_4_)" fill="#fff"/><path class="st17" d="M675.3 547.9l39.2.5c.8 0 1.4-.6 1.4-1.4v-2.3l-42-.6v2.3c0 .9.6 1.5 1.4 1.5z"/><path class="st5" d="M697.8 537.4c-.1 0-.2-.1-.3-.2-1.6-2.2-3.2-3.3-3.2-3.3-.3-.2-.4-.6-.2-.9.2-.3.7-.4 1-.2.1 0 1.8 1.2 3.6 3.6.2.3.1.7-.2.9-.2.2-.4.2-.7.1zm-3.4 1.6c-.1 0-.2-.1-.3-.2-1.6-2.2-3.2-3.3-3.2-3.3-.3-.2-.4-.6-.2-.9.2-.3.7-.4 1-.2.1 0 1.8 1.2 3.6 3.6.2.3.1.7-.2.9-.2.2-.5.2-.7.1zm-3.5 1.7c-.1 0-.2-.1-.3-.2-1.6-2.2-3.2-3.3-3.2-3.3-.3-.2-.4-.6-.2-.9.2-.3.7-.4 1-.2.1 0 1.8 1.2 3.6 3.6.2.3.1.7-.2.9-.2.2-.5.2-.7.1z"/><path class="st19" d="M750.8 410.6s-7.9 57.1 51 95.9l-15 17.4s-65.9-42.3-61-99.5l25-13.8z"/><path class="st20" d="M754 443.6c-.8 1.2-1.7 2.4-2.5 3.6-2.1 3.2-3.8 6.8-5.3 10.3-2.7 6-4.7 12.2-6.3 18.5-9.2-14.8-15.7-32.4-14-51.7l24.9-13.7c-.2 0-2.1 14.1 3.2 33z"/><path class="st17" d="M712 347.5c-1.8 17.5-1.5 43.2 1 60.6 0 0-29.8 63.1-21 125.3l24.3 5.3s3-82.1 34.6-124.6l.2-41.1-26.2-3.5-2.9-21.9-10-.1z"/><path class="st19" d="M749.6 377.6c.2 0 .4-.3.7-.8.1-.3.3-.6.4-1 .1-.4.3-.9.4-1.5.1-.3.1-.6.2-.9.1-.3.1-.6.2-1s.1-.7.2-1.1c.1-.4.1-.8.2-1.2 0-.4.1-.8.2-1.3 0-.4.1-.9.1-1.3.1-.9.1-1.9.2-2.9.1-2 0-4.3-.1-6.7-.2-2.4-.5-5-1-7.6-.5-2.7-1.2-5.5-2.1-8.3-.9-2.8-2-5.9-4-8.7-1-1.4-2.2-2.7-3.5-3.8-1.3-1.1-2.8-1.9-4.5-2.5-.8-.3-1.7-.5-2.5-.5-.2 0-.4 0-.6-.1h-1.2c-.2 0-.4 0-.6.1-1.7.2-3.2.7-4.5 1.4s-2.5 1.6-3.5 2.5c-.3.2-.5.5-.7.7s-.5.5-.7.8c-.2.3-.4.5-.6.8-.2.3-.4.5-.6.8-.7 1.1-1.3 2.2-1.7 3.3s-.8 2.1-1 3.2c-.5 2-.7 3.9-.8 5.5-.1 1.6-.1 3 0 4.1.1 2.3.3 3.5.6 3.5.2 0 .5-1.2.8-3.4.2-1.1.4-2.4.7-4 .3-1.5.7-3.2 1.4-5 .7-1.8 1.5-3.6 2.9-5.3.2-.2.3-.4.5-.6.2-.2.4-.4.5-.6l.6-.6c.2-.2.4-.4.6-.5.9-.7 1.8-1.3 2.9-1.8 1-.5 2.1-.8 3.2-.8h1.2l.4.1c.5.1 1.1.2 1.6.4 2.2.8 4.2 2.6 5.6 4.8 1.5 2.3 2.5 4.9 3.3 7.5.8 2.7 1.5 5.3 2 7.8s.9 4.9 1.2 7.2c.3 2.3.5 4.4.6 6.3 0 1 .1 1.9.2 2.8 0 .4 0 .9.1 1.3v5.2c0 .6 0 1 .1 1.5 0 .4.1.8.1 1.1-.1.7.1 1.1.3 1.1z"/><path class="st13" d="M735.5 353.4l-.3.3c-2.1 2.1-4.8 4.2-8 5.8-1.6.8-3.3 1.6-5.1 2.2-1.8.6-3.7 1-5.8 1.3-2 .3-4.1.4-6.3.2s-4.4-.6-6.5-1.3-4.2-1.7-6-2.8-3.4-2.4-4.8-3.8-2.6-2.8-3.7-4.2c-1.1-1.5-2-2.9-2.7-4.4-1.5-2.9-2.6-5.9-3.2-8.6-.7-2.7-1-5.2-1.2-7.4-.2-2.2-.2-4.2-.2-6v-.7c-2.5-2.2-4.2-5.4-4.5-8.8-.4-4.2 1.3-8.5 4.5-11.3.5-.5 1.3-.7 2-.7 2 .2 2.4 2.4 2.1 4.1-.3 1.5-.8 3.1-.1 4.5.4.8 1.3 1.4 2.2 1.5h.4c1.2-.1 2.1 1.1 1.8 2.2-.2.7-.5 1.3-.8 1.9-.7 1.3-1.5 2.4-2.4 3.5.9 2 2 4.5 3.3 7.3.9 1.8 1.9 3.7 3 5.5 1.2 1.9 2.5 3.6 4.1 5.3.8.8 1.6 1.6 2.5 2.3.9.7 1.8 1.4 2.7 1.9.9.5 1.8 1 2.8 1.3.9.3 1.9.5 2.8.7.9.1 1.8.1 2.8.1.9 0 1.9-.2 2.8-.4 1.9-.4 3.8-1.1 5.5-1.9 1.8-.8 3.4-1.8 5-2.8 1.2-.8 2.4-1.7 3.5-2.5.8 6.1 3.6 11.6 7.8 15.7z"/><path class="st17" d="M720.6 280.1c.6-2.6 2.6-4.8 5-6s5.3-1.4 7.9-.8c2.7.6 5.3 1.9 7.2 3.9 1.9 2 3.2 4.7 3.3 7.4.3 4.4-2.1 8.5-4.3 12.2-4.7-6.8-11.8-12.9-19.1-16.7z"/><path class="st20" d="M717.7 275.2c-1.3-.7-2.7-1.3-4.1-1.1-2 .4-3.2 2.6-3 4.6s1.5 3.8 3 5.1c3 2.7 7 4.3 11 4.3 2.4 0 4.7-.5 6.9-1.5.8-.3 2.7-1.1 3.1-1.8.6-1.3-.7-1.5-1.8-2-5.1-2.5-10.1-5-15.1-7.6z"/><path class="st21" d="M734.4 309.7c3.5-3.3 5.6-8 5.8-12.8.1-2.9-.4-5.8-1.6-8.5-.3-.5-.6-1-1-1.5-.7-1-1.6-1.9-2.5-2.6-1.7 2.6-2.8 5.6-3.3 8.8-1 5.5-.1 11.5 2.6 16.6zm-17.1-18.6c-1.1 3-.4 6.6 1.7 9.1 1.4-2.2 2.3-4.8 2.6-7.4.1-.7.1-1.5-.4-2s-1.2-.5-1.9-.4c-.6.2-1.3.9-2 .7z"/><path class="st13" d="M719.4 289.8c.8 3.4-.7 6.9-2 10.2-1.3 3.3-2.4 7-1 10.2 1.5 3.4 5.5 5.2 9.1 4.6 3.6-.6 6.7-3.3 8.3-6.6 1.6-3.3 1.9-7.1 1.5-10.7s-1.5-7.2-2.6-10.6c-4.4-2.2-9.6-.4-13.3 2.9z"/><path class="st13" d="M734.4 298.6c.4-.5.9-1 1.5-1.3.6-.3 1.3-.5 1.9-.3.8.2 1.4 1 1.7 1.8.5 1.5 0 3.3-1.2 4.4-1.2 1.1-3.1 1.3-4.5.6.4-1.7.6-3.4.6-5.2z"/><path class="st21" d="M717 292.6c5.2 0 10.4-1.5 14.7-4.3-.3 1.5-.3 3.1.2 4.7.6 2.1 2 4 4 5.4 1.9-3 2.9-7 2.2-10.3l-.3-1.2c-.7-1-1.6-1.9-2.5-2.6-1.4-1.2-3.1-2.2-4.9-2.9-4.7-1.7-10.2-1-14.3 1.8-.4.3-.7.6-1 1-.8.9-1.4 1.9-1.8 3-1.1 2.6.9 5.4 3.7 5.4z"/><path id="XMLID_83_" class="st15" d="M576.9 506.8s.2 8.6-7.5 8.6l-.5 30.8 20.2-37.2-12.2-2.2z"/><defs><path id="SVGID_5_" d="M576.9 506.8s.2 8.6-7.5 8.6l-.5 30.8 20.2-37.2-12.2-2.2z"/></defs><clipPath id="SVGID_6_"><use xlink:href="#SVGID_5_" overflow="visible"/></clipPath><path d="M563.8 537.8s6.4-8.4 17.4-1.4l-13.1 13.5-4.3-12.1z" clip-path="url(#SVGID_6_)" fill="#fff"/><path class="st17" d="M572.7 546.9l19.1-35.3c.3-.5.1-1.2-.5-1.5l-2.3-1.2-20.2 37.2 2.3 1.2c.7.4 1.4.2 1.6-.4z"/><path class="st5" d="M574 521.6c-.1.1-.2.1-.3.2-2.7.4-4.4 1.3-4.4 1.3-.3.2-.8.1-.9-.3s0-.8.3-1c.1 0 2-1.1 4.9-1.5.4-.1.7.2.8.6-.1.3-.2.5-.4.7zm-.1 3.9c-.1.1-.2.1-.3.2-2.7.4-4.4 1.3-4.4 1.3-.3.2-.8.1-.9-.3s0-.8.3-1c.1 0 2-1.1 4.9-1.5.4-.1.7.2.8.6-.1.3-.2.5-.4.7zm-.1 3.8c-.1.1-.2.1-.3.2-2.7.4-4.4 1.3-4.4 1.3-.3.2-.8.1-.9-.3s0-.8.3-1c.1 0 2-1.1 4.9-1.5.4-.1.7.2.8.6-.2.3-.3.6-.4.7z"/><path id="XMLID_82_" class="st15" d="M493 533s-7.5 4.2-11.1-2.7l-27.5 13.9 42.3.6L493 533z"/><defs><path id="SVGID_7_" d="M493 533s-7.5 4.2-11.1-2.7l-27.5 13.9 42.3.6L493 533z"/></defs><clipPath id="SVGID_8_"><use xlink:href="#SVGID_7_" overflow="visible"/></clipPath><path d="M459.5 535.7s10.4 1.8 9.4 14.8l-18-5.3 8.6-9.5z" clip-path="url(#SVGID_8_)" fill="#fff"/><path class="st17" d="M455.8 547.9l39.5.5c.8 0 1.4-.6 1.4-1.4v-2.3l-42.3-.6v2.3c.1.9.7 1.5 1.4 1.5z"/><path class="st5" d="M478.6 537.3c-.1 0-.2-.1-.3-.2-1.6-2.2-3.2-3.3-3.3-3.3-.3-.2-.4-.6-.2-.9s.7-.4 1-.2c.1 0 1.9 1.2 3.6 3.6.2.3.1.7-.2.9-.1.2-.4.2-.6.1zm-3.5 1.7c-.1 0-.2-.1-.3-.2-1.6-2.2-3.2-3.3-3.3-3.3-.3-.2-.4-.6-.2-.9s.7-.4 1-.2c.1 0 1.9 1.2 3.6 3.6.2.3.1.7-.2.9-.1.1-.4.1-.6.1zm-3.5 1.6c-.1 0-.2-.1-.3-.2-1.6-2.2-3.2-3.3-3.3-3.3-.3-.2-.4-.6-.2-.9s.7-.4 1-.2c.1 0 1.9 1.2 3.6 3.6.2.3.1.7-.2.9-.1.2-.4.2-.6.1z"/><path class="st19" d="M532 409.4s-8 57.6 51.4 96.7l-15.1 17.5s-66.4-42.7-61.5-100.4l25.2-13.8z"/><path class="st20" d="M535.2 442.7c-.8 1.2-1.7 2.4-2.5 3.6-2.2 3.2-3.8 6.8-5.4 10.4-2.7 6.1-4.8 12.3-6.4 18.6-9.3-15-15.8-32.7-14.2-52.2l25.1-13.8c0 .1-1.9 14.3 3.4 33.4z"/><path class="st17" d="M492.7 396.6c13.1.6 26.3.2 39.5.1l-.1 13c0 2.1-.7 4.2-1.9 5.9-30.1 43.5-33 123.1-33 123.1l-24.5-5.3c-8.9-62.7 21.2-126.4 21.2-126.4-.5-3.3-.9-6.8-1.2-10.4z"/><path class="st6" d="M504.6 332.9s-66.1-31.5-75.1-31.5c-7.5 0-19-1-15.3 1.3 3.7 2.4 10.1.5 10.4 3.9.3 3.4-1.4 5.9 3.5 6.5s7.5-2.8 10.7-1.3 34.1 22.9 34.1 22.9l29.5 15.3.9-10.2"/><path class="st5" d="M493.4 356.1c-.6 12.2-1.5 33.9-.6 46.2 11.1 2 27.3.6 39.3-1.5.4-12.4.3-28.7 0-41.1-.2-6.5-1.5-15.5-3.5-21.6-1.8-5.5-5.1-10.8-9.8-14-.5-.4-1.1-.7-1.7-1-2.7 2.4-8.4 3.4-11.6 1.9-1.7 1.2-3.1 2.6-4.4 4.2-2.3 2.9-4 6.3-5.1 9.9-1.8 5.4-2.3 11.2-2.6 17z"/><path class="st13" d="M501.1 329.1c3.1.7 6.4.6 9.4-.2 1.6-.5 3.2-1.1 4.7-2 1.2-.7 2.2-1.5 3.2-2.4 0-.2 0-.5.1-.7v-.3c-.1-.3-.1-.7-.2-1-.7-3.4-1.3-6.9-1.9-10.4-.5-3.2-1.1-6.4-1.6-9.6-3.6 1.8-6.9 4.1-10.2 6.6 0 2.2 0 4.4-.2 6.5-.1 1.8-.3 3.7-.5 5.5-.1 1-.3 2-.4 3-.1 1-.3 1.9-.5 2.8-.6.7-1.3 1.4-1.9 2.2z"/><path class="st14" d="M503.9 321c3.7-3.6 7.9-6.6 12.4-9-.5-3.2-1.1-6.4-1.6-9.6-3.6 1.9-6.9 4.1-10.2 6.6 0 2.2 0 4.4-.2 6.5 0 1.9-.2 3.7-.4 5.5z"/><path class="st5" d="M454 385.1l15.5-9.8c1.2-.8 1.9-2.2 1.6-3.6l-11.8-76.2c-.3-1.8-2.3-2.7-3.9-1.8l-15.6 9.9c-1.2.8-1.9 2.2-1.6 3.6l11.7 76c.4 1.9 2.5 2.9 4.1 1.9z"/><path class="st24" d="M463.4 335.3l-.7-1.3-1.1 5.7-1.2-2.2-.2 1.2 1.9 3.5z"/><g class="st25"><path class="st10" d="M457.6 338.3l-8.3 5.3"/><path class="st26" d="M449.1 344.7l9-5.7-.3-1.8-8.9 5.7z"/></g><g class="st25"><path class="st10" d="M458.2 342.1l-5.7 3.6"/><path class="st26" d="M452.4 346.8l6.2-4-.2-1.8-6.3 4z"/></g><path class="st24" d="M465.5 349.1l-.6-1.2-1.1 5.6-1.2-2.2-.2 1.2 1.9 3.5z"/><g class="st25"><path class="st10" d="M459.8 352.2l-8.4 5.3"/><path class="st26" d="M451.3 358.5l8.9-5.6-.3-1.8-8.9 5.7z"/></g><g class="st25"><path class="st10" d="M460.4 356l-4.1 2.5"/><path class="st26" d="M456.2 359.6l4.6-2.9-.3-1.8-4.6 2.9z"/></g><path class="st24" d="M461.4 322.9l-.7-1.3-1 5.7-1.2-2.2-.2 1.3 1.8 3.4z"/><g class="st25"><path class="st10" d="M455.7 326l-8.3 5.3"/><path class="st26" d="M447.2 332.3l8.9-5.6-.2-1.8-9 5.6z"/></g><g class="st25"><path class="st10" d="M456.3 329.7l-4 2.6"/><path class="st26" d="M452.1 333.4l4.6-2.9-.2-1.9-4.6 3z"/></g><path class="st24" d="M459.1 309.2l-.7-1.3-1.1 5.6-1.2-2.2-.2 1.3 1.9 3.4z"/><g class="st25"><path class="st10" d="M453.8 312.1l-8.4 5.3"/><path class="st26" d="M445.3 318.5l8.9-5.7-.3-1.8-8.9 5.7z"/></g><g class="st25"><path class="st10" d="M454.3 315.9l-4 2.6"/><path class="st26" d="M450.2 319.5l4.6-2.9-.3-1.8-4.6 3z"/></g><path class="st17" d="M501.5 277.8c.6-2.6 2.6-4.9 5-6.1 2.5-1.2 5.3-1.4 8-.8 2.7.6 5.3 1.9 7.3 3.9 1.9 2 3.2 4.7 3.3 7.5.3 4.4-2.1 8.5-4.3 12.3-4.8-6.8-11.9-13-19.3-16.8z"/><path class="st20" d="M498.6 272.9c-1.3-.7-2.7-1.3-4.1-1.1-2 .4-3.2 2.6-3 4.6.2 2 1.5 3.8 3 5.1 3 2.7 7 4.3 11.1 4.3 2.4 0 4.8-.5 7-1.5.8-.3 2.8-1.1 3.1-1.9.6-1.3-.8-1.5-1.8-2-5.2-2.4-10.2-5-15.3-7.5z"/><path class="st15" d="M515.5 307.6c3.5-3.4 5.7-8.1 5.9-13 .1-2.9-.4-5.9-1.6-8.6-.3-.5-.6-1-1-1.5-.7-1-1.6-1.9-2.5-2.7-1.7 2.7-2.8 5.7-3.4 8.8-1 5.9-.1 11.9 2.6 17zm-17.2-18.7c-1.1 3.1-.4 6.7 1.7 9.1 1.4-2.2 2.3-4.8 2.6-7.4.1-.7.1-1.5-.4-2s-1.3-.5-1.9-.4c-.7.2-1.4.8-2 .7z"/><path class="st13" d="M500.4 287.6c.8 3.5-.7 7-2 10.3s-2.4 7.1-1 10.3c1.5 3.4 5.5 5.2 9.2 4.6 3.6-.6 6.7-3.3 8.3-6.6 1.6-3.3 1.9-7.2 1.5-10.8-.4-3.7-1.5-7.2-2.6-10.7-4.5-2.2-9.7-.5-13.4 2.9z"/><path class="st13" d="M515.5 296.5c.4-.5.9-1 1.5-1.3s1.3-.5 1.9-.3c.8.2 1.4 1 1.7 1.8.5 1.5 0 3.4-1.2 4.4-1.2 1.1-3.1 1.3-4.5.6.4-1.8.5-3.4.6-5.2z"/><path class="st15" d="M497.9 290.4c5.3 0 10.5-1.5 14.8-4.3-.3 1.5-.3 3.2.2 4.7.7 2.1 2 4.1 4 5.4 1.9-3 2.9-7 2.2-10.4l-.3-1.2c-.7-1-1.6-1.9-2.5-2.7-1.5-1.2-3.1-2.2-4.9-2.9-4.7-1.7-10.2-1-14.4 1.8-.4.3-.7.6-1 1-.8.9-1.4 2-1.9 3-1.1 2.8 1 5.6 3.8 5.6z"/><path class="st17" d="M532.1 409.6v-42.1s-25.4 11.2-27.4-1.6c-2-12.9.6-24.4.6-24.4l-9.8-1s-7.5 12.3-2.6 61.8l39.2 7.3z"/><path class="st13" d="M522 354.3c0 .1 0 .3.1.4.4 3 .5 6.5-.1 10-.3 1.8-.7 3.6-1.3 5.4-.6 1.8-1.4 3.7-2.4 5.5s-2.2 3.6-3.6 5.2-3.1 3.2-5 4.5c-1.9 1.3-3.9 2.4-5.9 3.2-2 .8-4 1.3-6 1.6-2 .3-3.8.5-5.6.5-1.8 0-3.5-.2-5.2-.4-3.3-.5-6.3-1.5-8.9-2.5-2.6-1.1-4.8-2.3-6.8-3.5s-3.6-2.4-5-3.4c-.2-.1-.4-.3-.5-.4-3.3.7-6.9.1-9.8-1.6-3.6-2.2-6.1-6.2-6.4-10.4 0-.7.2-1.5.6-2 1.4-1.5 3.4-.5 4.6.8 1.1 1.1 2.1 2.5 3.6 2.8.9.1 1.9-.2 2.5-.9.1-.1.2-.2.2-.3.7-1 2.1-1.1 2.9-.1.4.6.8 1.2 1.1 1.8.6 1.3 1.1 2.7 1.4 4.1 2.2.4 4.9 1.1 7.9 1.6 2 .4 4.1.7 6.3.9 2.2.2 4.4.2 6.7-.1 1.1-.1 2.3-.3 3.3-.6 1.1-.3 2.1-.6 3.1-1s1.9-.9 2.8-1.5c.8-.6 1.6-1.2 2.2-1.8.7-.6 1.2-1.4 1.7-2.2.5-.8 1-1.6 1.4-2.5.8-1.8 1.4-3.7 1.8-5.6.4-1.9.6-3.8.7-5.7.1-1.5.1-3 .1-4.4 5.5 2.6 11.7 3.5 17.5 2.6z"/><path class="st19" d="M530.9 368.7c.2 0 .4-.2.6-.7.1-.2.2-.5.4-.9.1-.4.2-.8.4-1.3.1-.2.1-.5.2-.8 0-.3.1-.5.2-.8 0-.3.1-.6.2-.9 0-.3.1-.6.2-1 0-.4.1-.7.1-1.1 0-.4.1-.8.1-1.1.1-.8.1-1.6.2-2.5 0-1.8 0-3.7-.1-5.8-.2-2.1-.4-4.3-.8-6.6s-1-4.7-1.8-7.1c-.8-2.4-1.8-5-3.4-7.4-.8-1.2-1.8-2.3-3-3.2s-2.5-1.7-3.8-2.1c-.7-.2-1.4-.4-2.2-.5h-1.5c-.2 0-.4 0-.5.1-1.4.2-2.7.6-3.9 1.2-1.1.6-2.2 1.4-3 2.2l-.6.6-.6.6c-.2.2-.4.5-.5.7s-.3.5-.5.7c-.6.9-1.1 1.9-1.5 2.8-.4.9-.7 1.8-.9 2.7-.4 1.8-.6 3.4-.7 4.7-.1 1.4-.1 2.6 0 3.6.1 1.9.3 3 .5 3s.4-1.1.7-3c.1-.9.3-2.1.6-3.4s.6-2.8 1.2-4.3 1.3-3.1 2.5-4.5c.1-.2.3-.4.4-.5l.5-.5.5-.5c.2-.2.4-.3.5-.5.7-.6 1.6-1.1 2.5-1.5.9-.4 1.8-.6 2.8-.7h1.2l.3.1c.5 0 .9.2 1.4.4 1.9.7 3.6 2.2 4.8 4.1 1.3 1.9 2.1 4.2 2.8 6.4.7 2.3 1.3 4.5 1.7 6.7.5 2.1.8 4.2 1 6.2.3 2 .4 3.8.5 5.4 0 .8.1 1.6.1 2.4v5.6c0 .5 0 .9.1 1.3s.1.7.1 1c-.3.4-.2.7 0 .7z"/><path class="st7" d="M46.5 465.9h76.4v76.4H46.5z"/><path class="st27" d="M161.2 453.1l-38.3 12.8v76.4l38.3-12.8z"/><path class="st28" d="M46.5 465.9l38.2-12.8h76.5l-38.3 12.8z"/><path class="st12" d="M93.7 470.7h26v11.2h-26z"/><path class="st12" d="M96.3 471.8h.5v8.9h-.5zm1.4 0h.5v8.9h-.5zm1.3 0h.5v8.9H99zm1.4 0h.5v8.9h-.5z"/><path class="st12" d="M100.4 471.8h.5v8.9h-.5zm1.4 0h.5v8.9h-.5zm1.4 0h.5v8.9h-.5zm1.4 0h.5v8.9h-.5zm.8 0h.5v8.9h-.5zm1.4 0h.5v8.9h-.5zm1.3 0h.5v8.9h-.5zm1.3 0h.5v8.9h-.5zm1.4 0h.5v8.9h-.5zm1.4 0h.5v8.9h-.5z"/><path class="st12" d="M112.2 471.8h.5v8.9h-.5zm1.4 0h.5v8.9h-.5zm1.4 0h.5v8.9h-.5zm1.3 0h.5v8.9h-.5z"/><path class="st8" d="M109.8 453.1l-31.7 12.8h13.2l30.7-12.8z"/><path class="st8" d="M78.1 465.9v14.7h13.1l.1-14.7zm0 62v14.8h13.1l.1-14.8z"/><path class="st7" d="M135.1 484.1h58.6v58.6h-58.6z"/><path class="st27" d="M223.1 474.3l-29.3 9.8v58.6l29.3-9.8z"/><path class="st28" d="M135.1 484.1l29.3-9.8h58.7l-29.3 9.8z"/><path class="st29" d="M202.7 523.3v16.4l8.8-2.9v-16.4zm0-42.2v16.3l8.8-2.8v-16.4z"/><path class="st27" d="M152.8 478.2l-1.2.4-1.8.6-6.2 1.9h59.1l8.8-2.9z"/><path fill="#eab973" d="M144.7 436.6h43.5v43.5h-43.5z"/><path fill="#d3914f" d="M209.9 429.4l-21.8 7.2v43.5l21.8-7.2z"/><path fill="#f1d392" d="M144.7 436.6l21.7-7.2h43.5l-21.8 7.2z"/><path class="st12" d="M171.5 439.4h14.8v6.4h-14.8z"/><path class="st12" d="M173 440h.3v5h-.3zm.8 0h.3v5h-.3zm.7 0h.3v5h-.3zm.8 0h.3v5h-.3z"/><path class="st12" d="M175.4 440h.3v5h-.3zm.7 0h.3v5h-.3zm.8 0h.3v5h-.3zm.8 0h.3v5h-.3zm.5 0h.3v5h-.3zm.7 0h.3v5h-.3zm.8 0h.3v5h-.3zm.8 0h.3v5h-.3zm.8 0h.3v5h-.3zm.7 0h.3v5h-.3z"/><path class="st12" d="M182.1 440h.3v5h-.3zm.7 0h.3v5h-.3zm.8 0h.3v5h-.3zm.8 0h.3v5h-.3z"/><path d="M180.6 429.4l-17.9 7.2h7.5l17.4-7.2zm-17.9 7.2v8.4h7.4l.1-8.4zm0 35.3v8.4h7.4l.1-8.4z" fill="#c08448"/><path class="st7" d="M197.3 466.3h76.4v76.4h-76.4z"/><path class="st27" d="M312 453.5l-38.3 12.8v76.4L312 530z"/><path class="st28" d="M197.3 466.3l38.2-12.8H312l-38.3 12.8z"/><path class="st29" d="M285.4 517.4v21.3l11.4-3.7v-21.4zm0-55v21.3l11.4-3.7v-21.4z"/><path class="st27" d="M220.4 458.6l-1.6.5-2.4.8-8 2.5h77l11.4-3.8z"/><path class="st12" d="M244.5 471.1h26v11.2h-26z"/><path class="st12" d="M247.1 472.2h.5v8.9h-.5zm1.3 0h.5v8.9h-.5zm1.4 0h.5v8.9h-.5zm1.4 0h.5v8.9h-.5z"/><path class="st12" d="M251.2 472.2h.5v8.9h-.5zm1.4 0h.5v8.9h-.5zm1.4 0h.5v8.9h-.5zm1.3 0h.5v8.9h-.5zm.9 0h.5v8.9h-.5zm1.3 0h.5v8.9h-.5zm1.3 0h.5v8.9h-.5zm1.4 0h.5v8.9h-.5zm1.4 0h.5v8.9h-.5zm1.4 0h.5v8.9h-.5z"/><path class="st12" d="M263 472.2h.5v8.9h-.5zm1.4 0h.5v8.9h-.5zm1.4 0h.5v8.9h-.5zm1.3 0h.5v8.9h-.5z"/><path class="st34" d="M196.6 402.1h65.5v65.5h-65.5z"/><path class="st8" d="M294.9 391.1l-32.8 11v65.5l32.8-10.9z"/><path class="st35" d="M196.6 402.1l32.8-11h65.5l-32.8 11z"/><path class="st36" d="M272.1 445.9v18.3l9.8-3.2v-18.4zm0-47.2V417l9.8-3.2v-18.3z"/><path class="st8" d="M216.4 395.5l-1.3.4-2.1.7-6.9 2.1h66l9.8-3.2z"/><path class="st12" d="M237.1 406.2h22.3v9.6h-22.3z"/><path class="st12" d="M239.3 407.2h.4v7.6h-.4zm1.1 0h.4v7.6h-.4zm1.2 0h.4v7.6h-.4zm1.2 0h.4v7.6h-.4z"/><path class="st12" d="M242.9 407.2h.4v7.6h-.4zm1.1 0h.4v7.6h-.4zm1.2 0h.4v7.6h-.4zm1.2 0h.4v7.6h-.4zm.7 0h.4v7.6h-.4zm1.2 0h.4v7.6h-.4zm1.1 0h.4v7.6h-.4zm1.2 0h.4v7.6h-.4zm1.1 0h.4v7.6h-.4zm1.2 0h.4v7.6h-.4z"/><path class="st12" d="M253 407.2h.4v7.6h-.4zm1.1 0h.4v7.6h-.4zm1.2 0h.4v7.6h-.4zm1.2 0h.4v7.6h-.4z"/><path class="st34" d="M59.4 407.8h54.5v54.5H59.4z"/><path class="st8" d="M141.3 398.7l-27.3 9.1v54.6l27.3-9.1z"/><path class="st35" d="M59.4 407.8l27.3-9.1h54.6l-27.3 9.1z"/><path class="st36" d="M122.3 444.3v15.2l8.1-2.6v-15.3zm0-39.2v15.2l8.1-2.7v-15.3z"/><path class="st8" d="M75.9 402.3l-1.1.4-1.7.6-5.7 1.8h54.9l8.1-2.8z"/><path class="st12" d="M93.1 411.3h18.5v8H93.1z"/><path class="st12" d="M94.9 412.1h.4v6.3h-.4zm1 0h.4v6.3h-.4zm1 0h.4v6.3h-.4zm1 0h.4v6.3h-.4z"/><path class="st12" d="M97.9 412.1h.4v6.3h-.4zm1 0h.4v6.3h-.4zm1 0h.4v6.3h-.4zm.9 0h.4v6.3h-.4zm.7 0h.4v6.3h-.4zm.9 0h.4v6.3h-.4zm1 0h.4v6.3h-.4zm.9 0h.4v6.3h-.4zm1 0h.4v6.3h-.4zm1 0h.4v6.3h-.4z"/><path class="st12" d="M106.3 412.1h.4v6.3h-.4zm1 0h.4v6.3h-.4zm1 0h.4v6.3h-.4zm1 0h.4v6.3h-.4z"/><path d="M227.6 239.2c0-37.3-39.3-65.3-78.8-45-6.1 3.2-13.9 10.8-17.2 16.9-10.3 18.7-9.4 37.1-2 51.6h-.1l.4.8c.2.4.4.7.6 1.1l45.2 94.4 45.3-94.6c.1-.3.3-.5.5-.8l.2-.4c3.7-7.2 5.9-15.3 5.9-24zm-51.9 25.1c-14.1 0-25.6-11.5-25.6-25.6 0-14.1 11.5-25.6 25.6-25.6 14.1 0 25.6 11.5 25.6 25.6.1 14.1-11.4 25.6-25.6 25.6z" fill="#64ce38"/></g></svg>