<svg version="1.1" id="Layer_1" xmlns="http://www.w3.org/2000/svg" x="0" y="0" viewBox="0 0 260 260" xml:space="preserve"><style>.st1{fill:#f8f8ff}.st2{fill:#52b82d}.st15{fill:#cde4f7}.st17{fill:#ff524f}.st18{fill:#fff}.st19{fill:#1d4259}.st20{fill:#0f222c}</style><g id="Слой_51"><ellipse class="st1" cx="130" cy="233" rx="130" ry="27"/><path class="st1" d="M247.2 221.3c16.7-50.2 17.7-146.4-16.4-180.4-32.3-32.3-48.2 6-73.5 7.2-19.8 1-53.6-8.9-71.5-15.3-46.8-17-113 19.1-72.9 188.5 81-.3 153.2.3 234.3 0z"/><path d="M172.3 68.6c3.6-5.1 6.2-8.5 15.9-8.5 5.7 0 14.9 7.2 20.6 6.5 4-.5 7.9-3.7 11.7-2.3 1.8.7 3.1 2.4 3.3 4.4l-51.5-.1zM45.4 56.1C50.6 49 54.2 44 67.8 44c8 0 21 10.1 29 9.1 5.6-.7 11.1-5.2 16.5-3.2 2.5 1 4.4 3.4 4.6 6.2H45.4z" fill="#e3f4ff"/><circle class="st2" cx="239" cy="150.6" r="2"/><path class="st2" d="M138.2 22.9c1.3-.9 2.8-1.5 4.3-1.6 1 0 2-.4 2.7-1.2 1.3-1.4 3.4-1.8 5.2-1s2.8 2.7 2.5 4.7c-.1.9-.5 1.7-1.1 2.3-.7.8-1 1.8-1 2.8.2 4.4-3.2 8.2-7.6 8.4-4.4.2-8.2-3.2-8.4-7.6 0-2.6 1.2-5.2 3.4-6.8z"/><circle class="st2" cx="18.4" cy="78.3" r="4.5"/></g><path fill="none" stroke="#bad8e8" stroke-width="2" stroke-linecap="round" stroke-miterlimit="10" d="M13.2 224.2h233.2"/><path class="st15" d="M43 105.1h167.4v134.1H43z"/><path fill="#64ce38" d="M43 92.8h167.4v30.5H43z"/><path class="st17" d="M168.6 149h-6.5c-1.8 0-3.2-1.4-3.2-3.2v-6.5c0-1.8 1.4-3.2 3.2-3.2h6.5c1.8 0 3.2 1.4 3.2 3.2v6.5c0 1.8-1.5 3.2-3.2 3.2zm25.7 0h-6.5c-1.8 0-3.2-1.4-3.2-3.2v-6.5c0-1.8 1.4-3.2 3.2-3.2h6.5c1.8 0 3.2 1.4 3.2 3.2v6.5c0 1.8-1.4 3.2-3.2 3.2z"/><path class="st18" d="M117.1 174.8h-6.5c-1.8 0-3.2-1.4-3.2-3.2v-6.5c0-1.8 1.4-3.2 3.2-3.2h6.5c1.8 0 3.2 1.4 3.2 3.2v6.5c0 1.8-1.5 3.2-3.2 3.2zm25.7 0h-6.5c-1.8 0-3.2-1.4-3.2-3.2v-6.5c0-1.8 1.4-3.2 3.2-3.2h6.5c1.8 0 3.2 1.4 3.2 3.2v6.5c0 1.8-1.4 3.2-3.2 3.2zm-77.2 0h-6.5c-1.8 0-3.2-1.4-3.2-3.2v-6.5c0-1.8 1.4-3.2 3.2-3.2h6.5c1.8 0 3.2 1.4 3.2 3.2v6.5c0 1.8-1.5 3.2-3.2 3.2zm25.7 0h-6.5c-1.8 0-3.2-1.4-3.2-3.2v-6.5c0-1.8 1.4-3.2 3.2-3.2h6.5c1.8 0 3.2 1.4 3.2 3.2v6.5c0 1.8-1.4 3.2-3.2 3.2z"/><path class="st17" d="M168.6 174.8h-6.5c-1.8 0-3.2-1.4-3.2-3.2v-6.5c0-1.8 1.4-3.2 3.2-3.2h6.5c1.8 0 3.2 1.4 3.2 3.2v6.5c0 1.8-1.5 3.2-3.2 3.2zm25.7 0h-6.5c-1.8 0-3.2-1.4-3.2-3.2v-6.5c0-1.8 1.4-3.2 3.2-3.2h6.5c1.8 0 3.2 1.4 3.2 3.2v6.5c0 1.8-1.4 3.2-3.2 3.2z"/><path class="st18" d="M117.1 200.6h-6.5c-1.8 0-3.2-1.4-3.2-3.2v-6.5c0-1.8 1.4-3.2 3.2-3.2h6.5c1.8 0 3.2 1.4 3.2 3.2v6.5c0 1.7-1.5 3.2-3.2 3.2zm25.7 0h-6.5c-1.8 0-3.2-1.4-3.2-3.2v-6.5c0-1.8 1.4-3.2 3.2-3.2h6.5c1.8 0 3.2 1.4 3.2 3.2v6.5c0 1.7-1.4 3.2-3.2 3.2zm-77.2 0h-6.5c-1.8 0-3.2-1.4-3.2-3.2v-6.5c0-1.8 1.4-3.2 3.2-3.2h6.5c1.8 0 3.2 1.4 3.2 3.2v6.5c0 1.7-1.5 3.2-3.2 3.2zm25.7 0h-6.5c-1.8 0-3.2-1.4-3.2-3.2v-6.5c0-1.8 1.4-3.2 3.2-3.2h6.5c1.8 0 3.2 1.4 3.2 3.2v6.5c0 1.7-1.4 3.2-3.2 3.2z"/><path class="st17" d="M168.6 200.6h-6.5c-1.8 0-3.2-1.4-3.2-3.2v-6.5c0-1.8 1.4-3.2 3.2-3.2h6.5c1.8 0 3.2 1.4 3.2 3.2v6.5c0 1.7-1.5 3.2-3.2 3.2z"/><path class="st15" d="M194.3 200.6h-6.5c-1.8 0-3.2-1.4-3.2-3.2v-6.5c0-1.8 1.4-3.2 3.2-3.2h6.5c1.8 0 3.2 1.4 3.2 3.2v6.5c0 1.7-1.4 3.2-3.2 3.2z"/><path class="st18" d="M117.1 226.3h-6.5c-1.8 0-3.2-1.4-3.2-3.2v-6.5c0-1.8 1.4-3.2 3.2-3.2h6.5c1.8 0 3.2 1.4 3.2 3.2v6.5c0 1.8-1.5 3.2-3.2 3.2zm25.7 0h-6.5c-1.8 0-3.2-1.4-3.2-3.2v-6.5c0-1.8 1.4-3.2 3.2-3.2h6.5c1.8 0 3.2 1.4 3.2 3.2v6.5c0 1.8-1.4 3.2-3.2 3.2zm-77.2 0h-6.5c-1.8 0-3.2-1.4-3.2-3.2v-6.5c0-1.8 1.4-3.2 3.2-3.2h6.5c1.8 0 3.2 1.4 3.2 3.2v6.5c0 1.8-1.5 3.2-3.2 3.2zm25.7 0h-6.5c-1.8 0-3.2-1.4-3.2-3.2v-6.5c0-1.8 1.4-3.2 3.2-3.2h6.5c1.8 0 3.2 1.4 3.2 3.2v6.5c0 1.8-1.4 3.2-3.2 3.2z"/><path class="st17" d="M168.6 226.3h-6.5c-1.8 0-3.2-1.4-3.2-3.2v-6.5c0-1.8 1.4-3.2 3.2-3.2h6.5c1.8 0 3.2 1.4 3.2 3.2v6.5c0 1.8-1.5 3.2-3.2 3.2z"/><path class="st15" d="M194.3 226.3h-6.5c-1.8 0-3.2-1.4-3.2-3.2v-6.5c0-1.8 1.4-3.2 3.2-3.2h6.5c1.8 0 3.2 1.4 3.2 3.2v6.5c0 1.8-1.4 3.2-3.2 3.2z"/><path class="st2" d="M69.5 108.5H184v6.9H69.5z"/><path class="st19" d="M64.8 100.4c-1 0-1.9-.8-1.9-1.9v-10c0-1 .8-1.9 1.9-1.9 1 0 1.9.8 1.9 1.9v10.1c0 1-.9 1.8-1.9 1.8zm7.7 0c-1 0-1.9-.8-1.9-1.9v-10c0-1 .8-1.9 1.9-1.9 1 0 1.9.8 1.9 1.9v10.1c0 1-.9 1.8-1.9 1.8z"/><path class="st20" d="M64.8 98.9c-1 0-1.9-.8-1.9-1.9V87c0-1 .8-1.9 1.9-1.9 1 0 1.9.8 1.9 1.9v10.1c0 1-.9 1.8-1.9 1.8zm7.7 0c-1 0-1.9-.8-1.9-1.9V87c0-1 .8-1.9 1.9-1.9 1 0 1.9.8 1.9 1.9v10.1c0 1-.9 1.8-1.9 1.8z"/><path class="st19" d="M93.7 100.4c-1 0-1.9-.8-1.9-1.9v-10c0-1 .8-1.9 1.9-1.9 1 0 1.9.8 1.9 1.9v10.1c0 1-.8 1.8-1.9 1.8zm7.7 0c-1 0-1.9-.8-1.9-1.9v-10c0-1 .8-1.9 1.9-1.9 1 0 1.9.8 1.9 1.9v10.1c0 1-.8 1.8-1.9 1.8z"/><path class="st20" d="M93.7 98.9c-1 0-1.9-.8-1.9-1.9V87c0-1 .8-1.9 1.9-1.9 1 0 1.9.8 1.9 1.9v10.1c0 1-.8 1.8-1.9 1.8zm7.7 0c-1 0-1.9-.8-1.9-1.9V87c0-1 .8-1.9 1.9-1.9 1 0 1.9.8 1.9 1.9v10.1c0 1-.8 1.8-1.9 1.8z"/><path class="st19" d="M122.6 100.4c-1 0-1.9-.8-1.9-1.9v-10c0-1 .8-1.9 1.9-1.9 1 0 1.9.8 1.9 1.9v10.1c0 1-.8 1.8-1.9 1.8zm7.7 0c-1 0-1.9-.8-1.9-1.9v-10c0-1 .8-1.9 1.9-1.9 1 0 1.9.8 1.9 1.9v10.1c0 1-.8 1.8-1.9 1.8z"/><path class="st20" d="M122.6 98.9c-1 0-1.9-.8-1.9-1.9V87c0-1 .8-1.9 1.9-1.9 1 0 1.9.8 1.9 1.9v10.1c0 1-.8 1.8-1.9 1.8zm7.7 0c-1 0-1.9-.8-1.9-1.9V87c0-1 .8-1.9 1.9-1.9 1 0 1.9.8 1.9 1.9v10.1c0 1-.8 1.8-1.9 1.8z"/><path class="st19" d="M152.9 100.4c-1 0-1.9-.8-1.9-1.9v-10c0-1 .8-1.9 1.9-1.9 1 0 1.9.8 1.9 1.9v10.1c-.1 1-.9 1.8-1.9 1.8zm7.7 0c-1 0-1.9-.8-1.9-1.9v-10c0-1 .8-1.9 1.9-1.9 1 0 1.9.8 1.9 1.9v10.1c-.1 1-.9 1.8-1.9 1.8z"/><path class="st20" d="M152.9 98.9c-1 0-1.9-.8-1.9-1.9V87c0-1 .8-1.9 1.9-1.9 1 0 1.9.8 1.9 1.9v10.1c-.1 1-.9 1.8-1.9 1.8zm7.7 0c-1 0-1.9-.8-1.9-1.9V87c0-1 .8-1.9 1.9-1.9 1 0 1.9.8 1.9 1.9v10.1c-.1 1-.9 1.8-1.9 1.8z"/><path class="st19" d="M180.9 100.4c-1 0-1.9-.8-1.9-1.9v-10c0-1 .8-1.9 1.9-1.9 1 0 1.9.8 1.9 1.9v10.1c0 1-.9 1.8-1.9 1.8zm7.7 0c-1 0-1.9-.8-1.9-1.9v-10c0-1 .8-1.9 1.9-1.9 1 0 1.9.8 1.9 1.9v10.1c0 1-.9 1.8-1.9 1.8z"/><path class="st20" d="M180.9 98.9c-1 0-1.9-.8-1.9-1.9V87c0-1 .8-1.9 1.9-1.9 1 0 1.9.8 1.9 1.9v10.1c0 1-.9 1.8-1.9 1.8zm7.7 0c-1 0-1.9-.8-1.9-1.9V87c0-1 .8-1.9 1.9-1.9 1 0 1.9.8 1.9 1.9v10.1c0 1-.9 1.8-1.9 1.8z"/><path d="M194.2 200.2h-6.5c-1.8 0-3.2-1.4-3.2-3.2v-6.5c0-1.8 1.4-3.2 3.2-3.2h6.5c1.8 0 3.2 1.4 3.2 3.2v6.5c0 1.8-1.4 3.2-3.2 3.2zm0 25.8h-6.5c-1.8 0-3.2-1.4-3.2-3.2v-6.5c0-1.8 1.4-3.2 3.2-3.2h6.5c1.8 0 3.2 1.4 3.2 3.2v6.5c0 1.8-1.4 3.2-3.2 3.2z" fill="#ff6c45"/><circle class="st2" cx="210.9" cy="211.3" r="34.2"/><path class="st18" d="M183.3 221v-2.5l2.3-2.1c3.9-3.5 5.8-5.5 5.9-7.6 0-1.5-.9-2.6-2.9-2.6-1.5 0-2.9.8-3.8 1.5l-1.2-3c1.4-1 3.4-1.8 5.9-1.8 4 0 6.3 2.4 6.3 5.6 0 3-2.2 5.4-4.8 7.7l-1.7 1.4v.1h6.7v3.4h-12.7zm22.7 0v-4.3h-8V214l6.8-10.9h5.1v10.5h2.1v3.1h-2.1v4.3H206zm0-7.4v-4c0-1.1.1-2.2.1-3.3h-.1c-.6 1.2-1 2.2-1.7 3.3l-2.4 3.9v.1h4.1zm8.1 7.4l5.3-17.9h3.6l-5.3 17.9h-3.6zm24.3-17.9v2.6L231 221h-4.4l7.4-14.4v-.1h-8.2v-3.4h12.6z"/></svg>