<svg version="1.1" id="Layer_1" xmlns="http://www.w3.org/2000/svg" xmlns:xlink="http://www.w3.org/1999/xlink" x="0" y="0" viewBox="0 0 910 567" xml:space="preserve"><style>.st0{fill:#eaf1fc}.st2{fill:#fff}.st3{fill:#d6e0f0}.st4{fill:#e9edf4}.st5{fill:#cde4f7}.st6{fill:#fcfbfc}.st7{fill:#edf0f4}.st8{fill:#e08f73}.st9{fill:#f09976}.st10{fill:#e8815f}.st11{fill:#0b2b46}.st13{fill:#02819f}.st15{fill:#047487}.st16{fill:#05616b}.st17{fill:#64ce38}.st18{fill:#ffda35}.st23{fill:#eab624}</style><g id="Грузики"><ellipse class="st0" cx="452.9" cy="502.1" rx="452.9" ry="64.9"/><path d="M833.7 485.8c57.9-120.3 89.8-350.6-35.7-427.1-82.1-50-167.6 14.4-255.4 17.3-68.9 2.3-135.3-52.1-197.5-67.6C182.2-32.3-74 73.6 38.6 485.8c281.7-.8 513.3.8 795.1 0z" fill="#f8f8ff"/><path class="st2" d="M679.2 317.7H531.7c-2 0-3.5-1.6-3.5-3.5V98.5c0-41.6 33.7-75.4 75.3-75.4h3.8c41.7 0 75.4 33.8 75.4 75.4v215.6c.1 2-1.5 3.6-3.5 3.6z"/><path class="st3" d="M679.9 320.9H529.5c-2.5 0-4.5-2-4.5-4.5v-248c0-25.9 21-46.8 46.8-46.8h65.6c25.9 0 46.8 21 46.9 46.9v248c0 2.4-2 4.4-4.4 4.4zm-150.1-4.7h149.8V68.4c0-23.3-18.9-42.1-42.1-42.1h-65.6c-23.2 0-42.1 18.9-42.1 42.1v247.8z"/><path class="st3" d="M604.7 319c-1.3 0-2.4-1.1-2.4-2.4V23.9c0-1.3 1.1-2.4 2.4-2.4s2.4 1.1 2.4 2.4v292.7c-.1 1.3-1.1 2.4-2.4 2.4z"/><path class="st3" d="M682 251.3H527.4c-1.3 0-2.4-1.1-2.4-2.4s1.1-2.4 2.4-2.4H682c1.3 0 2.4 1.1 2.4 2.4s-1.1 2.4-2.4 2.4zm0-146.9H527.4c-1.3 0-2.4-1.1-2.4-2.4s1.1-2.4 2.4-2.4H682c1.3 0 2.4 1.1 2.4 2.4 0 1.3-1.1 2.4-2.4 2.4zm0 73.5H527.4c-1.3 0-2.4-1.1-2.4-2.4s1.1-2.4 2.4-2.4H682c1.3 0 2.4 1.1 2.4 2.4s-1.1 2.4-2.4 2.4z"/><path class="st4" d="M806.2 178.2c-7.9 2.9-4.2 13.8.9 18.7 5.5 5.3 14 8.3 18.7 2.5.8-.9.8-2.4-.1-3.2-.5-.5-1.2-.7-1.9-.6-3.4.1-6-.8-4.7-3.3s6.5 2.3 8.4 2.3c4.3.1 6-3.2 5-5.9-.8-2.2-6.8-3-5.3-4.8 2.1-2.6 5.1 1.5 7.3-.4 3.4-2.8 2.8-8.3 1.3-10.2-1.2-1.6-6.2-4-9.9-2.4-3.5 1.5-2.5 9.2-4.1 9.3-3.2.2-.6-6.6-3.1-8.6-1.5-1.2-5.9-.4-6.9 2.5-1.4 3.8 3.8 11 0 11.4-3.5.5-1.5-3.6-2.5-5.8-.3-.6-1.6-2.1-3.1-1.5z"/><path class="st5" d="M781.3 240.5h-.1c-.2-.1-.3-.3-.2-.4 8.7-26.2 26.2-48.4 49.6-63 .2-.1.4-.1.5.1s0 .4-.1.5c-23.3 14.5-40.7 36.7-49.4 62.7 0 .1-.1.1-.3.1z"/><path class="st4" d="M784.1 155.8c-5.8 6.1 2.4 14.2 9.2 16.3 7.3 2.3 16.2 1.1 17.9-6.2.3-1.2-.3-2.5-1.5-2.8-.7-.2-1.4-.1-1.9.3-3 1.6-5.7 2-5.7-.8s6.8-.9 8.6-1.7c3.9-1.9 3.9-5.5 1.8-7.5-1.7-1.6-7.4.4-6.9-1.9.7-3.3 5.3-1 6.4-3.6 1.8-4.1-1.2-8.7-3.5-9.7-1.8-.9-7.3-.8-9.9 2.3-2.5 2.9 2 9.3.5 10.2-2.8 1.6-3.5-5.6-6.7-6.3-1.9-.4-5.5 2.3-5.1 5.3.5 4 8.4 8.1 5.2 10.2-2.9 2-2.9-2.6-4.9-4.1-.6-.5-2.4-1.2-3.5 0z"/><path class="st5" d="M789.8 222.7c-.2 0-.3-.1-.3-.3-4-27.3 1.6-55.1 16-78.6.1-.2.3-.2.5-.1s.2.3.1.5c-14.3 23.4-19.9 51.1-15.9 78.2-.1.1-.2.2-.4.3z"/><path class="st4" d="M778.1 169.7c7.2 4.4 1.3 14.3-4.7 18.1-6.5 4.1-15.4 5.3-18.9-1.3-.6-1.1-.3-2.5.8-3.1.6-.3 1.3-.4 1.9-.2 3.3.8 6 .4 5.3-2.2s-6.8.9-8.7.6c-4.2-.8-5.2-4.3-3.7-6.8 1.3-2 7.2-1.6 6.2-3.6-1.5-3-5.3.4-7.1-1.8-2.8-3.5-1.1-8.7.8-10.3 1.5-1.3 6.8-2.7 10.2-.4 3.2 2.2.5 9.5 2.2 10 3.1.8 2-6.3 4.8-7.8 1.7-.9 5.8.8 6.3 3.8.6 4-6 9.9-2.4 11.2 3.3 1.2 2.2-3.2 3.7-5.2.3-.7 1.9-1.9 3.3-1z"/><path class="st5" d="M789.8 235.8c-.2 0-.3-.1-.3-.3-3.1-27.2-15.7-52.5-35.6-71.4-.1-.1-.2-.3 0-.5s.3-.2.5 0c20 19 32.6 44.4 35.8 71.8-.1.2-.2.4-.4.4z"/><path class="st2" d="M775.7 248.5h25.8l4-35.3h-33.9z"/><path class="st4" d="M805.6 219.5h-34.1c-.5 0-.9-.4-.9-.9l-.4-4.4c0-.5.4-1 .9-1h35c.5 0 .9.5.9 1l-.4 4.4c-.1.5-.6.9-1 .9z"/><path class="st3" d="M740 248.9c-.5 0-.8.4-.8.8v2.2c0 .5.4.8.8.8h81.9c.5 0 .8-.4.8-.8v-2.2c0-.5-.4-.8-.8-.8H740z"/><path class="st0" d="M206.8 1.5h3.1v140.4h-3.1z"/><path class="st3" d="M231.5 171c0-13.1-10.6-23.7-23.7-23.7S184 157.9 184 171h47.5z"/><path class="st3" d="M216.2 147.5c0 7-3.9 12.6-8.8 12.6s-8.8-5.6-8.8-12.6 3.9-12.6 8.8-12.6 8.8 5.6 8.8 12.6z"/><path class="st0" d="M167.9 1.5h3.1v91.2h-3.1z"/><path class="st3" d="M192.5 121.8c0-13.1-10.6-23.7-23.7-23.7s-23.7 10.6-23.7 23.7h47.4z"/><path class="st3" d="M177.2 98.3c0 7-3.9 12.6-8.8 12.6s-8.8-5.6-8.8-12.6 3.9-12.6 8.8-12.6 8.8 5.6 8.8 12.6z"/><circle class="st3" cx="388.7" cy="157.5" r="44.1"/><circle class="st6" cx="388.7" cy="157.5" r="33.5"/><path class="st3" d="M398.4 179l-8.1-22.3c-.4-1.1-1.5-1.7-2.7-1.4l-23.8 5.6c-1.2.3-2 1.5-1.7 2.7.3 1.2 1.5 2 2.7 1.7l21.8-5.1 7.4 20.4c.3.9 1.2 1.5 2.1 1.5 1.3 0 2.3-1 2.3-2.3.2-.3.1-.6 0-.8z"/><circle class="st3" cx="388.2" cy="157.5" r="4.6"/><path class="st3" d="M369.8 521.7l-52.7-168.3 10.5-2.9 46.9 171.2z"/><path class="st3" d="M276.4 521.7l39.7-171.5 10.6 2.5-45.7 169z"/><path class="st3" d="M354.5 467.8h-63.6V462h62zM88.8 521.7l52.7-168.3-10.5-2.9-46.9 171.2z"/><path class="st3" d="M182.2 521.7l-39.7-171.5-10.6 2.5 45.7 169z"/><path class="st3" d="M104.1 467.8h63.6V462h-61.9zM83.4 354.9h291.1v-16.8H83.4z"/><path class="st7" d="M146.9 337.2c0 .5-.4.8-.8.8h-39.2c-.4 0-.8-.4-.8-.8v-28.3c0-.5.4-.8.8-.8h39.2c.4 0 .8.4.8.8v28.3z"/><path class="st3" d="M105.6 311.9V305c.1-.8.8-1.4 1.5-1.3h38.8c.8-.1 1.5.5 1.5 1.3v6.9h-41.8z"/><path class="st7" d="M150.2 336.9c0 .6.5 1.2 1.2 1.2h57.7c.6 0 1.2-.5 1.2-1.2v-37.1c0-.6-.5-1.2-1.2-1.2h-57.7c-.6 0-1.2.5-1.2 1.2v37.1z"/><path class="st3" d="M150.2 303.6v-10.1c0-.6.5-1.2 1.2-1.2h57.7c.6 0 1.2.5 1.2 1.2v10.1h-60.1z"/><path class="st4" d="M754.2 335.2h7.3v41.4h-7.3z"/><path class="st3" d="M784.1 378.5h-52.5c0-4.2 3.4-7.6 7.6-7.6h37.2c4.3 0 7.7 3.4 7.7 7.6z"/><path class="st5" d="M784.3 341.9h-53c-2.1 0-3.8-1.7-3.8-3.8 0-.5.1-1.1.3-1.5l16.1-35.8c.6-1.4 1.9-2.2 3.4-2.2h20.9c1.5 0 2.8.9 3.4 2.2l16 35.8c.8 1.9 0 4.1-1.9 5-.3.2-.8.3-1.4.3z"/><path class="st4" d="M669 378.5h147.2v130.3H669z"/><path class="st3" d="M681.7 388.4h120.5v45.7H681.7zm0 55.3h120.5v52.8H681.7zm-6.5 65.1h13.2v11.5h-13.2zm120.5 0h13.2v11.5h-13.2z"/><circle class="st6" cx="693.7" cy="454" r="6.4"/><path transform="translate(-.423 .753)" class="st4" d="M689.4 396.9h59.8v15.9h-59.8z"/><path transform="translate(-.443 .77)" class="st6" d="M701.8 413.3h66v20.8h-66z"/><path class="st4" d="M296.7 268.5c-7.9 2.9-4.2 13.8.9 18.7 5.5 5.3 14 8.3 18.7 2.5.9-.9.8-2.4-.1-3.2-.5-.5-1.2-.7-1.9-.6-3.4.1-6-.8-4.7-3.3s6.5 2.3 8.4 2.3c4.3.1 6-3.2 5-5.9-.8-2.2-6.8-3-5.3-4.8 2.1-2.6 5.1 1.5 7.3-.4 3.4-2.8 2.8-8.3 1.3-10.2-1.2-1.6-6.2-4-9.9-2.4-3.5 1.5-2.5 9.2-4.1 9.3-3.2.2-.6-6.6-3.1-8.6-1.5-1.2-5.9-.4-6.9 2.5-1.4 3.8 3.8 11 0 11.4-3.5.5-1.5-3.6-2.5-5.8-.3-.6-1.5-2.1-3.1-1.5zm-22-22.4c-5.8 6.1 2.4 14.2 9.2 16.3 7.3 2.3 16.2 1.1 17.9-6.2.4-1.2-.3-2.5-1.5-2.8-.6-.2-1.4-.1-1.9.3-3 1.6-5.7 2-5.7-.8s6.9-.9 8.6-1.7c3.9-1.9 3.9-5.5 1.8-7.5-1.7-1.6-7.4.4-6.9-1.9.7-3.3 5.3-1 6.4-3.6 1.8-4.1-1.2-8.7-3.5-9.7-1.8-.9-7.3-.8-9.9 2.3-2.5 2.9 2 9.3.5 10.2-2.8 1.6-3.5-5.6-6.7-6.3-1.9-.4-5.5 2.3-5.1 5.3.5 4 8.4 8.1 5.2 10.2-2.9 2-2.9-2.6-4.9-4.1-.6-.5-2.4-1.2-3.5 0zm-6.1 13.9c7.2 4.4 1.3 14.3-4.7 18.1-6.5 4.1-15.4 5.3-18.9-1.3-.6-1.1-.3-2.5.8-3.1.6-.3 1.3-.4 1.9-.2 3.3.8 6 .4 5.3-2.2s-6.8.9-8.7.6c-4.2-.8-5.2-4.3-3.6-6.8 1.3-2 7.2-1.6 6.2-3.6-1.5-3-5.3.4-7.1-1.8-2.8-3.5-1.1-8.7.8-10.3 1.5-1.3 6.9-2.7 10.2-.4 3.1 2.2.5 9.5 2.1 10 3.1.8 2-6.3 4.8-7.8 1.7-.9 5.9.8 6.3 3.8.6 4-6 9.9-2.4 11.2 3.3 1.2 2.2-3.2 3.7-5.2.4-.7 1.9-1.9 3.3-1z"/><path class="st8" d="M229 317.9c-.4-.7-2.1-.6-4.9 0-1.4.3-3.1.7-5 1.2s-4.1 1-6.4 1.4c-2.4.5-4.9.8-7.4.9-1.3 0-2.6 0-3.8-.1-1.3-.1-2.6-.3-3.8-.6-1.3-.3-2.5-.6-3.7-1.1-1.2-.5-2.3-1-3.4-1.7-1-.6-2-1.4-2.9-2.2l-.6-.6-.6-.7c-.4-.5-.8-.9-1.1-1.4-1.5-2.1-2.7-4.4-3.5-6.9-.4-1.3-.8-2.5-1.1-3.8-.2-.6-.3-1.3-.4-1.9s-.3-1.3-.3-1.9c-.2-1.3-.3-2.5-.5-3.7s-.2-2.5-.2-3.7c-.1-2.5-.1-4.8-.1-7.1s0-4.4-.1-6.3c-.1-1.8-.2-3.5-.5-5.2-.2-1.3-.6-2.6-1.3-3.8-.4-.9-1.2-1.6-2.1-2-1-.3-2-.3-2.9.1-1.3.5-2.4 1.3-3.4 2.3-1.4 1.4-2.6 2.9-3.6 4.6-1.3 2.2-2.4 4.5-3.3 6.9-1.1 3-1.8 6.1-2.2 9.2-.3 1.8-.4 3.6-.4 5.4 0 2 .1 4 .3 5.9.1 1 .3 2 .5 3.1s.4 2.1.7 3.1c.6 2.2 1.3 4.3 2.1 6.3 1.9 4.5 4.6 8.6 8.1 12.1.9.9 1.9 1.8 2.9 2.6l1.6 1.2c.5.4 1.1.7 1.6 1.1 2.1 1.3 4.4 2.4 6.7 3.2 2.2.7 4.4 1.3 6.7 1.6 2.1.3 4.3.4 6.4.2 2-.1 3.9-.4 5.9-.8 1.8-.4 3.5-.9 5.2-1.5 2.9-1 5.7-2.4 8.3-3.9 2.1-1.2 4.1-2.6 6-4 1.4-1.1 2.8-2.2 4.1-3.5 1.8-1.9 2.8-3.3 2.4-4z"/><path class="st2" d="M196.3 301c.7 15-.2 29.9-1.4 44.8-14.4 4.2-29.6 5-44.4 2.2-.5-15.2-1-30.4-.6-45.6.2-8 .7-16.1 3.2-23.7 2.2-6.8 6.3-13.1 12-17 .7-.5 1.4-.9 2.1-1.3 3.3 2.9 10.3 4.1 14.2 2.4 2 1.4 3.8 3.2 5.4 5.1 2.8 3.6 4.9 7.7 6.3 12.1 2.2 6.8 2.8 14 3.2 21z"/><path class="st9" d="M186.9 268c-5.9 1.3-12 .4-17.2-2.7-1.4-.8-2.7-1.8-3.9-3 0-.3-.1-.6-.1-.9v-.4c.1-.4.2-.8.3-1.3.9-4.2 1.6-8.5 2.4-12.7.7-3.9 1.3-7.8 2-11.7 4.4 2.3 8.5 5 12.4 8.1 0 2.7.1 5.3.2 8 .1 2.2.3 4.5.6 6.7.1 1.2.3 2.5.5 3.7.2 1.2.4 2.3.6 3.5.7.9 1.5 1.8 2.2 2.7z"/><path class="st8" d="M626.1 270.8c.8-.1 1.7 1.4 2.9 4 .6 1.3 1.2 3 2 4.8s1.6 3.9 2.6 6.1c1 2.3 2.2 4.5 3.6 6.6.7 1.1 1.5 2.1 2.3 3.1.8 1 1.7 1.9 2.7 2.8 1 .9 2 1.7 3.1 2.4s2.2 1.3 3.3 1.8c1.1.5 2.3.8 3.5 1.1.3.1.6.1.9.2.3 0 .6.1.9.1.6 0 1.2.1 1.8.1 2.6 0 5.2-.4 7.7-1.2 1.3-.4 2.5-.8 3.8-1.3.6-.2 1.2-.5 1.8-.8s1.2-.5 1.8-.8c1.2-.5 2.3-1.2 3.3-1.8s2.2-1.3 3.2-2c2.1-1.3 4-2.7 5.8-4s3.6-2.5 5.2-3.6c1.5-1 3-1.9 4.6-2.6 1.2-.6 2.5-1 3.8-1.2 1-.1 2 .1 2.9.6.8.6 1.4 1.5 1.6 2.5.3 1.4.3 2.8.1 4.1-.3 1.9-.9 3.8-1.7 5.6-1 2.4-2.3 4.6-3.7 6.7-1.8 2.6-3.9 5-6.3 7.2-1.3 1.3-2.7 2.4-4.2 3.5-1.6 1.2-3.3 2.3-5 3.2-.9.5-1.8 1-2.8 1.4s-1.9.9-3 1.2c-2.1.8-4.2 1.4-6.4 1.9-4.8 1.1-9.8 1.2-14.7.5-1.3-.2-2.6-.5-3.8-.8l-1.9-.6c-.6-.2-1.2-.5-1.8-.7-2.3-1-4.5-2.2-6.5-3.6-1.9-1.4-3.6-2.9-5.2-4.6-1.5-1.6-2.8-3.3-3.9-5.1-1.1-1.7-2-3.4-2.8-5.2-.7-1.7-1.3-3.4-1.8-5.1-.8-3-1.4-6-1.7-9.1-.2-2.4-.3-4.9-.2-7.3 0-1.8.2-3.6.4-5.4.5-3 1-4.6 1.8-4.7z"/><path class="st10" d="M183.5 258.2c-4.5-4.4-9.6-8.1-15.1-11.1.7-3.9 1.3-7.8 2-11.7 4.4 2.3 8.5 5 12.4 8.1 0 2.7 0 5.3.2 8 0 2.2.2 4.5.5 6.7z"/><path class="st11" d="M95.5 486.1s-.3 10.5 9.2 10.5l.5 37.6-24.6-45.5 14.9-2.6z"/><defs><path id="SVGID_1_" d="M95.5 486.1s-.3 10.5 9.2 10.5l.5 37.6-24.6-45.5 14.9-2.6z"/></defs><clipPath id="SVGID_2_"><use xlink:href="#SVGID_1_" overflow="visible"/></clipPath><g clip-path="url(#SVGID_2_)"><path class="st2" d="M111.6 524s-7.8-10.3-21.3-1.8l16 16.5 5.3-14.7z"/></g><path class="st13" d="M100.6 535.2L77.2 492c-.4-.7-.1-1.5.6-1.8l2.8-1.5 24.6 45.5-2.8 1.5c-.6.4-1.5.1-1.8-.5z"/><path class="st2" d="M99 504.2c.1.1.3.2.4.2 1.9.3 3.7.8 5.4 1.6.4.2.9.1 1.1-.3.2-.4 0-.9-.4-1.2-1.9-.9-3.9-1.6-6-1.9-.4-.1-.8.2-.9.7 0 .4.2.7.4.9zm.2 4.8c.1.1.3.2.4.2 1.9.3 3.7.8 5.4 1.6.4.2.9.1 1.1-.3.2-.4 0-.9-.4-1.2-1.9-.9-3.9-1.6-6-1.9-.4-.1-.8.2-.9.7 0 .4.1.7.4.9zm.2 4.7c.1.1.3.2.4.2 1.9.3 3.7.8 5.4 1.7.4.2.9.1 1.1-.3.2-.4 0-.9-.4-1.2-1.9-.9-3.9-1.6-6-1.8-.4-.1-.8.2-.9.7 0 .2.1.5.4.7z"/><path class="st11" d="M196.4 517.2s9.2 5.1 13.6-3.3l33.6 17-51.8.6 4.6-14.3z"/><defs><path id="SVGID_3_" d="M196.4 517.2s9.2 5.1 13.6-3.3l33.6 17-51.8.6 4.6-14.3z"/></defs><clipPath id="SVGID_4_"><use xlink:href="#SVGID_3_" overflow="visible"/></clipPath><g clip-path="url(#SVGID_4_)"><path class="st2" d="M237.4 520.6s-12.7 2.1-11.5 18l22-6.5-10.5-11.5z"/></g><path class="st13" d="M241.8 535.6l-48.4.6c-.9 0-1.7-.8-1.7-1.7v-2.8l51.8-.6v2.8c0 .9-.7 1.7-1.7 1.7z"/><path class="st2" d="M214 522.5c.1-.1.3-.2.4-.3 1.1-1.5 2.5-2.9 4-4 .4-.2.5-.7.2-1.1-.3-.4-.8-.5-1.2-.2-1.7 1.2-3.2 2.7-4.4 4.4-.3.3-.2.9.2 1.1.2.2.5.3.8.1zm4.3 2.1c.1-.1.3-.2.4-.3 1.1-1.5 2.5-2.9 4-4 .4-.2.5-.7.2-1.1-.3-.4-.8-.5-1.2-.2-1.7 1.2-3.2 2.7-4.4 4.4-.3.3-.2.9.2 1.1.2.2.5.2.8.1zm4.3 2c.1-.1.3-.2.4-.3 1.1-1.5 2.5-2.9 4-4 .4-.2.5-.7.2-1.1-.3-.4-.8-.5-1.2-.2-1.7 1.2-3.2 2.7-4.4 4.4-.3.3-.2.9.2 1.1.2.2.5.2.8.1z"/><path class="st15" d="M149.1 370.5s10.1 67-62.5 114.7l18.5 21.4S185.9 458 180 387.5l-30.9-17z"/><path class="st16" d="M145.1 411.1c1 1.5 2.1 2.9 3.1 4.5 2.5 4 4.7 8.3 6.6 12.7 3.2 7.4 5.8 15 7.8 22.8 11.4-18.3 19.4-39.9 17.4-63.8l-30.7-16.9c0 .1 2.4 17.4-4.2 40.7z"/><path class="st17" d="M331.5 284.7c-1.8-7.6-9.5-12.3-17.1-10.5-3.7-15.4-6.8-28.2-8.7-36l-99.6 23.9c-5.1 1.3-8.3 6.4-7.1 11.6l21.7 90.4 42.5-10.2c-.3-1.1-.4-2.2-.4-3.4 0-7.8 6.3-14.1 14.1-14 6.5 0 12.2 4.5 13.7 10.8l39-9.4c-2.9-12.1-5.9-24.4-8.7-36 7.6-1.8 12.4-9.4 10.6-17 .1-.1.1-.1 0-.2z"/><path class="st13" d="M196.9 288.4c2.2 21.6 1.8 53.2-1.3 74.7 0 0 36.7 77.9 25.7 154.5l-30 6.5s-3.6-101.3-42.5-153.7l-.2-50.7 32.3-4.3 3.6-27h12.4z"/><path class="st15" d="M150.6 325.4c-.2 0-.5-.3-.8-1-.2-.4-.3-.8-.5-1.3s-.3-1.1-.5-1.8c-.1-.3-.2-.7-.3-1.1s-.2-.8-.2-1.2-.2-.9-.2-1.3-.1-.9-.2-1.4-.1-1-.2-1.5-.1-1.1-.1-1.6c-.1-1.1-.1-2.3-.2-3.6-.1-2.5 0-5.3.2-8.3.2-3.2.6-6.3 1.2-9.4.6-3.5 1.5-6.9 2.6-10.2 1.1-3.8 2.8-7.4 4.9-10.7 1.2-1.7 2.7-3.3 4.3-4.6 1.6-1.3 3.5-2.3 5.5-3 1-.3 2.1-.5 3.1-.6l.8-.1h1.6l.8.1c1.9.2 3.8.8 5.6 1.7 1.6.8 3.1 1.9 4.4 3.1l.9.9.8.9.8 1c.3.3.5.7.7 1 .9 1.3 1.6 2.6 2.1 4 .5 1.3.9 2.6 1.3 3.9.5 2.2.9 4.5 1 6.8.1 1.7.1 3.4 0 5.1-.1 2.8-.4 4.3-.7 4.3s-.6-1.5-1-4.2c-.2-1.4-.4-3-.8-4.9-.4-2.1-.9-4.2-1.7-6.2-.8-2.4-2-4.6-3.5-6.5-.2-.3-.4-.5-.6-.8l-.7-.7-.7-.7c-.3-.2-.5-.4-.8-.7-1.1-.9-2.3-1.6-3.5-2.2-1.3-.6-2.6-.9-4-1h-1.5l-.5.1c-.7.1-1.4.3-2 .5-2.9 1.2-5.3 3.3-6.9 5.9-1.8 2.9-3.2 6-4.1 9.3-1 3.3-1.9 6.5-2.5 9.6s-1.1 6.1-1.5 8.9-.6 5.4-.8 7.8c-.1 1.2-.2 2.4-.2 3.4 0 .5-.1 1.1-.1 1.6v1.5c0 .5 0 1-.1 1.4s0 .9 0 1.3v2.3c0 .7-.1 1.3-.1 1.8s-.1.9-.1 1.4c-.6.6-.8 1-1 1z"/><path class="st9" d="M160.8 281.6c0 .2-.1.4-.1.5-.5 4.1-.4 8.2.3 12.2.4 2.3.9 4.5 1.7 6.7.8 2.3 1.8 4.5 3 6.6 1.3 2.3 2.8 4.4 4.5 6.3 1.8 2.1 3.9 3.9 6.1 5.5 2.2 1.5 4.7 2.8 7.2 3.8 2.4.9 4.8 1.5 7.3 1.9 2.3.4 4.6.5 6.9.5 2.1 0 4.2-.3 6.3-.6 3.7-.6 7.4-1.7 10.9-3.2 2.9-1.2 5.6-2.7 8.2-4.3 2.1-1.3 4.1-2.7 6-4.3l.6-.5c8.9 1.8 17.6-3.9 19.4-12.8.1-.7.3-1.5.3-2.2.1-.9-.2-1.8-.8-2.5-1.7-1.9-4.1-.5-5.6 1.1-1.3 1.4-2.5 3.1-4.4 3.4-1.1.2-2.3-.2-3.1-1-.1-.1-.2-.3-.3-.4-.7-1-2-1.3-3-.6-.2.1-.4.3-.5.5-.5.7-1 1.4-1.3 2.2-.7 1.6-1.3 3.3-1.7 5-2.6.6-5.9 1.4-9.6 2.1-2.6.5-5.1.9-7.7 1.1-2.7.3-5.5.2-8.2-.1-1.4-.1-2.7-.4-4.1-.7-1.3-.3-2.6-.7-3.8-1.2-1.2-.5-2.3-1-3.4-1.7-1.9-1.3-3.6-2.9-4.9-4.9-.7-1-1.3-2-1.7-3-1-2.2-1.8-4.5-2.3-6.9-.5-2.3-.9-4.6-1-7-.1-1.8-.1-3.6-.2-5.4-6.5 3.6-13.9 4.9-21 3.9z"/><path class="st18" d="M652.3 242.5l.3-37.1-117.1-1c-.1 8.1-.2 21.2-.3 37.1 7.8.1 14.2 6.5 14.1 14.3-.1 7.8-6.5 14.2-14.3 14.1-.1 12-.2 24.6-.3 37.1l46.2.4c-.1 7.9 6.2 14.3 14.1 14.3 7.8.1 14.3-6.2 14.3-14.1l42.5.4.3-37.1c7.8.3 14.4-5.9 14.7-13.7s-5.9-14.4-13.7-14.7h-.8z"/><path class="st13" d="M186.4 205.3c-.8-3.3-3.1-6-6.1-7.4-3.1-1.4-6.5-1.7-9.7-1-3.4.7-6.5 2.4-8.9 4.8-2.4 2.5-3.9 5.7-4.1 9.1-.3 5.4 2.5 10.4 5.3 15.1 6.1-8.7 14.2-15.7 23.5-20.6z"/><path class="st16" d="M190 199.3c1.6-.8 3.3-1.6 5.1-1.3 2.4.5 3.9 3.2 3.7 5.7-.4 2.5-1.7 4.7-3.6 6.3-6 5.4-14.6 6.8-22 3.5-.9-.4-3.4-1.3-3.8-2.3-.7-1.6.9-1.8 2.3-2.5l18.3-9.4z"/><path class="st18" d="M169.4 241.7c-7.1-6.8-9.2-17.3-5.2-26.3l1.2-1.8c.9-1.2 1.9-2.3 3.1-3.3 2.1 3.3 3.5 7 4.1 10.8 1.2 7.1.1 14.3-3.2 20.6zm21-22.8c1.3 3.8.5 8.1-2.1 11.2-1.7-2.8-2.8-5.9-3.2-9.1-.2-.8 0-1.7.5-2.4.7-.5 1.5-.7 2.3-.5.9.1 1.7 1 2.5.8z"/><path class="st9" d="M187.9 217.3c-.9 4.2.9 8.6 2.4 12.6s2.9 8.6 1.2 12.6c-1.8 4.1-6.8 6.4-11.2 5.6s-8.3-4.1-10.2-8.1c-1.9-4.1-2.5-8.7-1.8-13.2s1.8-8.9 3.2-13.1c5.5-2.7 11.8-.6 16.4 3.6z"/><path class="st9" d="M169.3 228.1c-.5-.6-1.1-1.1-1.8-1.6-.7-.4-1.5-.6-2.3-.4-1 .4-1.8 1.2-2.1 2.2-.9 2.6.4 5.5 3 6.4 1.3.5 2.7.4 4-.3-.5-2-.7-4.1-.8-6.3z"/><path class="st18" d="M190.9 220.7c-6.4 0-12.7-1.8-18.1-5.3.4 1.9.3 3.9-.3 5.7-.8 2.7-2.6 5-4.9 6.6-2.3-3.7-3.6-8.6-2.7-12.7.1-.5.2-1 .4-1.5.9-1.2 1.9-2.3 3.1-3.3 1.8-1.5 3.8-2.7 6-3.5 5.9-2 12.4-1.2 17.6 2.2.4.4.9.8 1.2 1.2 1 1.1 1.8 2.4 2.3 3.7.9 2.6-.4 5.5-3 6.4-.5.4-1 .5-1.6.5z"/><path class="st2" d="M667.1 310c-1.2 15-.8 30-.1 45.1 14.3 4.7 29.6 6 44.5 3.6 1-15.3 2-30.5 2-45.8 0-8-.2-16.2-2.5-23.9-2-6.9-5.9-13.4-11.5-17.5-.7-.5-1.3-.9-2-1.3-3.4 2.8-10.5 3.8-14.4 2-2.1 1.4-4 3.1-5.6 5-3 3.5-5.2 7.6-6.7 11.9-2.3 6.6-3.1 13.8-3.7 20.9z"/><path class="st9" d="M677.5 277.1c3.8 1 7.8 1 11.6.1 2-.5 4-1.3 5.8-2.3 1.4-.8 2.8-1.8 4-2.8 0-.3.1-.6.1-.9v-.4c-.1-.4-.2-.9-.2-1.3-.7-4.3-1.4-8.5-2-12.9-.6-4-1.1-7.9-1.6-11.9-4.5 2.2-8.7 4.8-12.7 7.8-.1 2.7-.2 5.4-.4 8-.2 2.3-.5 4.5-.8 6.7-.2 1.3-.4 2.5-.6 3.7s-.4 2.3-.7 3.5c-.9.9-1.7 1.7-2.5 2.7z"/><path class="st10" d="M681.3 267.3c4.7-4.3 9.9-7.8 15.6-10.7-.6-4-1.1-7.9-1.6-11.9-4.5 2.2-8.7 4.8-12.7 7.8-.1 2.7-.2 5.4-.4 8-.3 2.4-.6 4.6-.9 6.8z"/><path class="st11" d="M764.4 488.7s-.1 10.6-9.6 10.3l-1.7 37.8 26.2-45-14.9-3.1z"/><defs><path id="SVGID_5_" d="M764.4 488.7s-.1 10.6-9.6 10.3l-1.7 37.8 26.2-45-14.9-3.1z"/></defs><clipPath id="SVGID_6_"><use xlink:href="#SVGID_5_" overflow="visible"/></clipPath><g clip-path="url(#SVGID_6_)"><path class="st2" d="M747.1 526.3s8.2-10.1 21.4-1.1l-16.5 16-4.9-14.9z"/></g><path class="st13" d="M757.8 537.9l24.8-42.6c.4-.6.2-1.5-.5-1.9l-2.8-1.6-26.2 45 2.8 1.6c.6.4 1.5.2 1.9-.5z"/><path class="st2" d="M760.3 506.8c-.1.1-.3.1-.4.2-1.9.2-3.8.7-5.5 1.5-.4.2-.9.1-1.1-.3v-.1c-.2-.4 0-.9.4-1.2 1.9-.9 4-1.5 6.1-1.7.4 0 .8.3.9.7 0 .4-.2.7-.4.9zm-.3 4.8c-.1.1-.3.1-.4.2-1.9.2-3.8.7-5.5 1.5-.4.2-.9.1-1.1-.3v-.1c-.2-.4 0-.9.4-1.2 1.9-.9 4-1.5 6.1-1.7.4 0 .8.3.9.7 0 .4-.1.7-.4.9zm-.3 4.7c-.1.1-.3.2-.4.2-1.9.2-3.8.7-5.5 1.5-.4.2-.9.1-1.1-.3v-.1c-.2-.4 0-.9.4-1.2 1.9-.9 4-1.5 6.1-1.7.4-.1.8.3.9.7v.1c-.1.3-.2.6-.4.8z"/><path class="st11" d="M660.1 527.3s-9.4 4.9-13.5-3.7l-34.3 16 52 2.3-4.2-14.6z"/><defs><path id="SVGID_7_" d="M660.1 527.3s-9.4 4.9-13.5-3.7l-34.3 16 52 2.3-4.2-14.6z"/></defs><clipPath id="SVGID_8_"><use xlink:href="#SVGID_7_" overflow="visible"/></clipPath><g clip-path="url(#SVGID_8_)"><path class="st2" d="M618.8 529.3s12.7 2.6 11 18.5l-21.9-7.2 10.9-11.3z"/></g><path class="st13" d="M613.8 544.2l48.6 2.1c.9 0 1.7-.7 1.8-1.6l.1-2.8-52-2.3-.1 2.8c-.1 1 .7 1.8 1.6 1.8z"/><path class="st2" d="M642.2 532c-.1-.1-.3-.2-.3-.3-1.1-1.6-2.4-3-3.9-4.2-.4-.3-.5-.7-.2-1.1.3-.4.8-.4 1.2-.2 1.7 1.3 3.1 2.8 4.3 4.6.3.4.2.9-.2 1.1 0 0-.1 0-.1.1-.3.1-.6.1-.8 0zm-4.4 1.9c-.1-.1-.3-.2-.3-.3-1.1-1.6-2.4-3-3.9-4.2-.4-.3-.5-.7-.2-1.1.3-.4.8-.4 1.2-.2 1.7 1.3 3.1 2.8 4.3 4.6.3.4.2.9-.2 1.1-.3.2-.6.3-.9.1zm-4.3 1.9c-.1-.1-.3-.2-.3-.3-1.1-1.6-2.4-3-3.9-4.2-.4-.3-.5-.7-.2-1.1.3-.4.8-.4 1.2-.2 1.7 1.3 3.1 2.8 4.3 4.6.3.4.2.9-.2 1.1-.3.3-.7.3-.9.1z"/><path class="st15" d="M712.8 367.4s-12 70.5 59.5 120.7l-19.3 21s-80-54.9-71.8-125.6l31.6-16.1z"/><path class="st16" d="M715.5 408.4c-1.1 1.5-2.2 2.9-3.3 4.4-2.7 4-5 8.2-7 12.6-3.5 7.3-6.3 14.9-8.5 22.6-10.9-18.7-18.2-40.8-15.5-64.6l31.4-16s-2.9 17.4 2.9 41z"/><path class="st13" d="M666.8 297.3c-2.9 21.6-3.5 53.4-1.1 75.1 0 0-39.4 77.1-30.8 154.4l30 7.5s6.8-101.6 47.6-153.1l1.8-50.9L682 325l-2.8-27.3-12.4-.4z"/><path class="st15" d="M712.3 336c.2 0 .5-.3.9-1 .2-.4.4-.9.5-1.3.2-.5.4-1.1.6-1.8.1-.3.2-.7.3-1.1l.3-1.2c.1-.4.2-.9.3-1.3s.2-.9.3-1.4l.3-1.5c.1-.5.1-1.1.2-1.6.2-1.1.2-2.3.3-3.6.2-2.5.2-5.3.1-8.3-.1-3.2-.5-6.4-.9-9.5-.5-3.5-1.3-6.9-2.3-10.3-1-3.9-2.5-7.5-4.6-10.9-1.2-1.8-2.6-3.4-4.2-4.8s-3.5-2.5-5.5-3.2c-1-.4-2-.6-3.1-.8l-.8-.1h-1.6l-.8.1c-2 .2-3.9.7-5.6 1.6-1.6.8-3.1 1.8-4.5 3l-.9.9-.9.9-.8.9c-.3.3-.5.6-.7 1-.9 1.3-1.7 2.6-2.3 4-.5 1.3-1 2.6-1.4 3.9-.6 2.2-1 4.5-1.2 6.8-.2 1.7-.2 3.4-.2 5.1 0 2.8.3 4.4.6 4.4s.6-1.5 1.1-4.2c.3-1.4.5-3 1-4.9.5-2.1 1.1-4.2 1.9-6.2.9-2.3 2.2-4.5 3.7-6.5.2-.2.4-.5.7-.7l.7-.7.8-.7c.3-.2.5-.4.8-.6 1.1-.9 2.3-1.5 3.6-2.1 1.3-.5 2.6-.8 4-.9h1.5l.5.1c.7.1 1.4.3 2 .6 2.8 1.3 5.2 3.5 6.8 6.2 1.7 3 3 6.1 3.8 9.4.9 3.3 1.7 6.6 2.2 9.7s1 6.1 1.3 9 .4 5.5.5 7.9c0 1.2.1 2.4.1 3.5v9.9c0 .5 0 1 .1 1.4 0 .4.2.8.5.9z"/><path class="st9" d="M695.8 305.5l-.4.4c-3 2.8-6.5 5.1-10.2 6.9-2.1 1-4.2 1.8-6.4 2.5-2.3.7-4.8 1.2-7.2 1.4-2.6.3-5.2.3-7.8 0-2.8-.3-5.5-.9-8.1-1.9-2.6-.9-5-2.2-7.3-3.7-2.1-1.4-4-3-5.8-4.9-1.6-1.7-3.1-3.5-4.4-5.4-1.2-1.8-2.3-3.6-3.2-5.6-1.7-3.4-2.9-7-3.7-10.8-.7-3-1.1-6.1-1.2-9.3-.1-2.5-.1-5 0-7.4v-.8c-6.7-6.2-7-16.7-.8-23.3.5-.5 1-1 1.6-1.5.7-.6 1.6-.9 2.5-.8 2.5.3 2.8 3.1 2.4 5.2-.4 1.9-1.1 3.9-.3 5.6.5 1 1.5 1.8 2.7 1.9h.5c1.2 0 2.2.9 2.2 2.1 0 .3 0 .5-.1.7-.3.8-.6 1.6-1 2.4-.9 1.5-1.9 3-3.1 4.3 1.1 2.5 2.3 5.7 3.9 9.1 1.1 2.4 2.3 4.7 3.6 7 1.4 2.4 3 4.6 4.8 6.7.9 1 1.9 2 3 2.9 1 .9 2.1 1.7 3.3 2.4 1.1.7 2.2 1.3 3.4 1.8 1.1.4 2.2.8 3.4 1 1.1.2 2.3.3 3.4.2 1.2 0 2.3-.1 3.5-.4 2.4-.5 4.7-1.2 6.9-2.1 2.2-1 4.3-2.1 6.2-3.4l4.5-3c.8 7.6 4.1 14.4 9.2 19.8z"/><path class="st13" d="M680 214c.9-3.3 3.3-5.9 6.4-7.3 3.1-1.3 6.5-1.6 9.8-.7 3.4.8 6.4 2.6 8.8 5.1 2.3 2.6 3.7 5.9 3.8 9.3.2 5.4-2.9 10.4-5.8 15-5.9-8.8-13.8-16.1-23-21.4z"/><path class="st16" d="M676.6 207.9c-1.6-.9-3.3-1.8-5-1.5-2.5.4-4.1 3.1-3.9 5.6.3 2.5 1.6 4.8 3.5 6.4 5.8 5.7 14.5 7.3 22 4.2.9-.4 3.4-1.2 3.9-2.1.8-1.6-.9-1.8-2.2-2.6l-18.3-10z"/><path class="st11" d="M696 251.2c7.3-6.6 9.8-17.1 6.1-26.3-1.1-2-2.5-3.7-4.2-5.2-2.2 3.3-3.7 6.9-4.5 10.7-1.4 7-.5 14.4 2.6 20.8zm-20.4-23.6c-1.4 3.8-.8 8.1 1.8 11.3 1.8-2.7 3-5.8 3.5-9 .2-.8.1-1.7-.4-2.4-.7-.6-1.5-.8-2.3-.6-.9.1-1.8.9-2.6.7z"/><path class="st9" d="M678.2 226.1c.8 4.3-1.1 8.6-2.8 12.6s-3.2 8.6-1.6 12.7c1.7 4.2 6.6 6.6 11.1 6s8.4-3.8 10.5-7.9c2-4.1 2.8-8.7 2.3-13.2s-1.5-9-2.8-13.3c-5.6-2.9-12-.9-16.7 3.1z"/><path class="st9" d="M696.5 237.5c.5-.6 1.2-1.1 1.9-1.5.7-.4 1.5-.5 2.3-.3 1 .4 1.7 1.2 2 2.3.9 2.6-.5 5.4-3.1 6.3-1.4.5-2.9.3-4.1-.4.5-2.1.9-4.2 1-6.4z"/><path class="st11" d="M675.1 229.4c6.4.2 12.8-1.4 18.3-4.7-.5 1.9-.5 3.9.1 5.8.8 2.7 2.4 5.1 4.7 6.8 2.4-3.6 3.8-8.5 3.1-12.7-.1-.5-.2-1-.4-1.5-.9-1.2-1.9-2.4-3-3.4-1.7-1.6-3.7-2.8-5.9-3.7-5.9-2.2-12.4-1.6-17.8 1.7-.5.4-.9.8-1.3 1.2-1 1.1-1.8 2.3-2.4 3.7-1 2.6.2 5.5 2.8 6.5.6.2 1.2.3 1.8.3z"/><path class="st18" d="M459.6 484.4c0-2-1.6-3.5-3.5-3.5H345.5c-2 0-3.5 1.6-3.5 3.5v51.8c0 2 1.6 3.5 3.5 3.5h110.6c2 0 3.5-1.6 3.5-3.5v-51.8z"/><linearGradient id="SVGID_9_" gradientUnits="userSpaceOnUse" x1="376.405" y1="-1259.02" x2="376.405" y2="-1274" gradientTransform="matrix(1 0 0 -1 0 -785)"><stop offset="0" stop-color="#fff"/><stop offset="1" stop-color="#9d9d9d"/></linearGradient><path fill="url(#SVGID_9_)" d="M363.2 472.4h26.5v8.5h-26.5z"/><linearGradient id="SVGID_10_" gradientUnits="userSpaceOnUse" x1="425.145" y1="-1259.02" x2="425.145" y2="-1274" gradientTransform="matrix(1 0 0 -1 0 -785)"><stop offset="0" stop-color="#fff"/><stop offset="1" stop-color="#9d9d9d"/></linearGradient><path fill="url(#SVGID_10_)" d="M411.9 472.4h26.5v8.5h-26.5z"/><path class="st23" d="M456.1 480.9h-10.6v48.6c0 2-1.6 3.5-3.5 3.5H342v3.2c0 2 1.6 3.5 3.5 3.5H456c2 0 3.5-1.6 3.5-3.5v-51.8c.1-1.9-1.5-3.5-3.4-3.5z"/><path class="st18" d="M459.6 425.5c0-2-1.6-3.5-3.5-3.5H345.5c-2 0-3.5 1.6-3.5 3.5v51.8c0 2 1.6 3.5 3.5 3.5h110.6c2 0 3.5-1.6 3.5-3.5v-51.8z"/><path class="st18" d="M389.6 425.7c0 2-1.6 3.5-3.5 3.5h-19.4c-2 0-3.5-1.6-3.5-3.5v-13.5c0-2 1.6-3.5 3.5-3.5h19.4c2 0 3.5 1.6 3.5 3.5v13.5zm48.8 0c0 2-1.6 3.5-3.5 3.5h-19.4c-2 0-3.5-1.6-3.5-3.5v-13.5c0-2 1.6-3.5 3.5-3.5h19.4c2 0 3.5 1.6 3.5 3.5v13.5z"/><path class="st23" d="M363.2 413.5h26.5v8.5h-26.5zm48.7 0h26.5v8.5h-26.5zm44.2 8.4h-10.6v48.6c0 2-1.6 3.5-3.5 3.5H342v3.2c0 2 1.6 3.5 3.5 3.5H456c2 0 3.5-1.6 3.5-3.5v-51.8c.1-1.9-1.5-3.4-3.4-3.5z"/><path class="st17" d="M553.5 484.6c0-2-1.6-3.5-3.5-3.6H439.4c-2 0-3.5 1.6-3.5 3.5v51.8c0 2 1.6 3.5 3.5 3.5H550c2 0 3.5-1.6 3.5-3.5v-51.7z"/><path class="st17" d="M483.5 484.8c0 2-1.6 3.5-3.5 3.5h-19.4c-2 0-3.5-1.6-3.5-3.5v-13.5c0-2 1.6-3.5 3.5-3.5H480c2 0 3.5 1.6 3.5 3.5v13.5zm48.8 0c0 2-1.6 3.5-3.5 3.5h-19.4c-2 0-3.5-1.6-3.5-3.5v-13.5c0-2 1.6-3.5 3.5-3.5h19.4c2 0 3.5 1.6 3.5 3.5v13.5z"/><path d="M457.1 472.6h26.5v8.5h-26.5zm48.7 0h26.5v8.5h-26.5zM550 481h-10.6v48.6c0 2-1.6 3.5-3.5 3.5h-100v3.2c0 2 1.6 3.5 3.5 3.5H550c2 0 3.5-1.6 3.5-3.5v-51.8c0-1.9-1.5-3.5-3.5-3.5z" fill="#52b82d"/></g></svg>