<svg version="1.1" id="Layer_1" xmlns="http://www.w3.org/2000/svg" xmlns:xlink="http://www.w3.org/1999/xlink" x="0" y="0" viewBox="0 0 260 260" xml:space="preserve"><style>.st2{fill:#52b82d}.st7{fill:#adbf5b}.st8{fill:#c9d93b}.st9{fill:#02819f}</style><ellipse cx="130" cy="232.8" rx="130" ry="27" fill="#eaf1fc"/><path d="M246.7 221.1c16.6-50.2 17.6-146.4-16.4-180.4-32.3-32.3-48.2 6-73.5 7.2-19.8 1-53.6-8.9-71.5-15.3-46.8-17-113 19.1-72.9 188.5 81.1-.4 153.3.3 234.3 0z" fill="#f8f8ff"/><circle class="st2" cx="214.7" cy="53.4" r="12.9"/><circle class="st2" cx="17.9" cy="106" r="4.5"/><path class="st2" d="M52.8 25.7c.9 1.3 2.2 2.2 3.7 2.8 1 .3 1.8 1 2.2 1.9.8 1.7 2.7 2.8 4.6 2.5s3.5-1.8 3.8-3.7c.1-.8 0-1.7-.3-2.5-.4-1-.4-2-.1-3 1.6-4.1-.5-8.7-4.7-10.3s-8.7.5-10.2 4.7c-1 2.5-.6 5.3 1 7.6z"/><circle class="st2" cx="244.7" cy="101.5" r="2"/><path id="SVGID_13_" d="M178.1 65.8c40.8 23.8 54.6 76.2 30.8 117s-76.2 54.6-117 30.8-54.6-76.2-30.8-117c23.7-40.8 76.1-54.6 117-30.8" fill-rule="evenodd" clip-rule="evenodd" fill="#ffda35"/><defs><path id="SVGID_2_" d="M178.1 65.8c40.8 23.8 54.6 76.2 30.8 117s-76.2 54.6-117 30.8-54.6-76.2-30.8-117c23.7-40.8 76.1-54.6 117-30.8"/></defs><clipPath id="SVGID_3_"><use xlink:href="#SVGID_2_" overflow="visible"/></clipPath><linearGradient id="SVGID_4_" gradientUnits="userSpaceOnUse" x1="146.082" y1="17.573" x2="208.587" y2="57.21" gradientTransform="scale(1 -1) rotate(14.767 694.586 -40.435)"><stop offset="0" stop-color="#ffd801"/><stop offset="1" stop-color="#fbff01"/></linearGradient><path d="M156.8 222.5c45.7-12 72.9-58.8 60.9-104.5-12-45.7-58.8-73-104.5-61s-73 58.8-61 104.6c12.1 45.6 58.9 72.9 104.6 60.9z" clip-path="url(#SVGID_3_)" fill="url(#SVGID_4_)"/><path d="M171.7 76.7c34.8 20.3 46.5 64.9 26.3 99.7-20.3 34.8-64.9 46.5-99.7 26.3C63.5 182.4 51.7 137.8 72 103s64.9-46.5 99.7-26.3" fill-rule="evenodd" clip-rule="evenodd" fill="#febf00"/><linearGradient id="SVGID_5_" gradientUnits="userSpaceOnUse" x1="95.177" y1="11.005" x2="163.507" y2="11.005" gradientTransform="scale(1 -1) rotate(14.767 694.586 -40.435)"><stop offset="0" stop-color="#ffd801"/><stop offset="1" stop-color="#fbff01"/></linearGradient><path d="M116.4 144.6h-10.2v-9.5h10.2v-29.6h27.9c6.9 0 12.3 1.8 16.5 5.4 4.1 3.6 6.1 8.3 6.1 14.1 0 5.9-2 10.6-6.1 14.2-4.1 3.7-9.6 5.5-16.5 5.5h-14.6v6.1h23.5v9.5h-23.5v10h-13.2v-10h-10.2v-9.5h10.2l-.1-6.2zm13.2-27.5v18h12.9c3.4 0 6.1-.8 8-2.4s2.9-3.8 2.9-6.6c0-2.9-1-5.1-2.9-6.7-1.9-1.5-4.6-2.3-8-2.3h-12.9z" fill="url(#SVGID_5_)"/><ellipse transform="rotate(-9.759 44.204 172.992)" class="st7" cx="44.2" cy="173" rx="5.1" ry="42.5"/><ellipse transform="rotate(-79.759 58.667 173.005)" class="st7" cx="58.7" cy="173" rx="42.5" ry="5.1"/><ellipse transform="matrix(.00425 -1 1 .00425 -110.791 212.939)" class="st8" cx="51.5" cy="162.1" rx="45.1" ry="5.5"/><ellipse transform="rotate(-19.756 38.411 178.898)" class="st8" cx="38.4" cy="178.9" rx="4.6" ry="38.2"/><ellipse transform="rotate(-69.756 64.254 179.103)" class="st8" cx="64.3" cy="179.1" rx="38.2" ry="4.6"/><path class="st9" d="M55.6 228.2l-8.5-.1c-5 0-9.3-4.2-9.8-9.6l-1.9-22.8c-.1-1.2.9-2.3 2.1-2.3l27.7.2c1.2 0 2.3 1.1 2.1 2.3l-2.1 22.8c-.3 5.5-4.7 9.5-9.6 9.5z"/><circle cx="172.2" cy="162.6" r="36.3" opacity=".55" fill="#def6fc"/><path class="st9" d="M172.2 205.3c-23.8 0-43.3-19.4-43.3-43.3s19.4-43.3 43.3-43.3 43.3 19.4 43.3 43.3-19.4 43.3-43.3 43.3zm0-77.3c-18.7 0-33.9 15.3-33.9 33.9s15.3 33.9 33.9 33.9c18.7 0 33.9-15.3 33.9-33.9S191 128 172.2 128z"/><path class="st9" d="M235 233.3l-36-38.5c-1.6-1.7-1.5-4.3.2-5.9l1.1-1c1.7-1.6 4.3-1.5 5.9.2l36 38.5c1.6 1.7 1.5 4.3-.2 5.9l-1.1 1c-1.7 1.6-4.3 1.5-5.9-.2z"/><path d="M170.6 135.5c-1.8-.2-1.7-2.8.1-2.9 4-.3 8.7 0 13.2 1.7 6.6 2.6 10.4 8.1 12.5 13.1.7 1.6-1.4 2.9-2.6 1.5-4.5-5.3-12.1-11.9-23.2-13.4z" opacity=".62" fill="#f8f8ff"/><path d="M234.9 236.7l-18.8-20.1c-2.8-2.9-2.6-7.6.4-10.4 2.9-2.8 7.6-2.6 10.4.4l18.8 20.1c2.8 2.9 2.6 7.6-.4 10.4-3 2.7-7.7 2.5-10.4-.4z" fill="#0b2b46"/></svg>